<?xml version="1.0" standalone="no"?>
<!DOCTYPE svg PUBLIC "-//W3C//DTD SVG 20010904//EN"
 "http://www.w3.org/TR/2001/REC-SVG-20010904/DTD/svg10.dtd">
<svg version="1.0" xmlns="http://www.w3.org/2000/svg"
 width="1000.000000pt" height="1000.000000pt" viewBox="0 0 1000.000000 1000.000000"
 preserveAspectRatio="xMidYMid meet">

<g transform="translate(0.000000,1000.000000) scale(0.100000,-0.100000)"
fill="#000000" stroke="none">
<path d="M9990 5005 l0 -4995 -487 1 c-269 1 -480 3 -470 6 22 6 24 71 2 79
-11 5 -15 23 -15 78 1 63 -4 177 -9 199 0 5 -6 5 -12 1 -9 -5 -10 9 -7 50 3
31 1 56 -3 56 -4 0 -12 12 -18 28 -10 23 -11 23 -7 3 3 -13 1 -20 -3 -15 -7 7
-22 139 -32 284 -1 8 -4 2 -8 -15 -5 -20 -10 13 -14 95 -4 69 -11 136 -14 150
-6 22 -7 23 -14 5 -5 -14 -8 -5 -9 30 -1 28 -4 64 -6 80 -2 17 -8 64 -13 105
-6 57 -9 65 -11 35 -2 -32 -17 71 -30 205 -1 11 -4 10 -9 -4 -4 -12 -12 28
-19 105 -7 68 -16 126 -21 129 -5 3 -14 52 -22 110 -10 81 -14 98 -20 75 l-7
-30 -2 35 c-3 55 -5 71 -15 140 -8 56 -10 61 -16 35 l-7 -30 -1 33 c-2 60 -24
173 -31 162 -4 -7 -10 13 -14 44 -3 31 -9 82 -12 114 -5 42 -9 52 -15 37 -6
-15 -8 -8 -8 23 -1 24 -6 87 -13 140 -9 70 -14 89 -18 67 -4 -19 -11 22 -20
110 -10 97 -16 131 -21 110 -6 -25 -7 -22 -9 20 -1 28 -3 57 -5 65 -1 8 -6 33
-9 54 -4 22 -11 45 -16 51 -5 6 -12 26 -15 45 -12 76 -17 96 -31 128 -8 18
-13 36 -10 41 5 8 -6 52 -24 96 -10 23 -19 57 -26 100 -3 16 -12 42 -20 56 -7
15 -16 45 -20 68 -4 23 -10 41 -15 41 -4 0 -13 25 -20 55 -7 30 -15 55 -19 55
-4 0 -11 15 -14 33 -3 17 -12 43 -19 57 -7 14 -19 46 -26 73 -8 26 -18 47 -23
47 -5 0 -6 5 -3 10 4 6 2 16 -3 23 -5 7 -13 27 -17 44 -3 18 -10 33 -15 33 -4
0 -10 13 -13 29 -4 17 -14 47 -23 68 -9 21 -18 44 -20 51 -1 7 -12 29 -24 49
-11 20 -19 42 -16 49 3 8 1 14 -4 14 -6 0 -10 6 -10 14 0 15 -22 37 -42 40
-20 3 -39 17 -34 25 7 11 -94 122 -104 116 -5 -3 -12 1 -17 8 -4 7 -24 24 -43
37 -19 13 -38 30 -43 36 -4 7 -16 11 -27 9 -11 -2 -19 1 -17 8 1 7 -4 11 -10
10 -7 -2 -12 3 -10 10 1 6 -6 11 -15 11 -10 -1 -18 2 -18 6 0 10 -62 47 -170
99 -47 23 -93 47 -104 52 -10 6 -28 12 -39 15 -11 2 -23 7 -26 11 -10 13 -50
33 -66 33 -8 0 -15 5 -15 10 0 6 -7 10 -15 10 -15 0 -55 19 -65 31 -7 8 -44
22 -52 21 -5 -1 -8 3 -8 9 0 5 -4 7 -10 4 -5 -3 -10 -1 -10 6 0 8 -5 7 -17 -2
-9 -8 -14 -9 -10 -2 5 7 -10 20 -40 35 -27 13 -50 26 -53 29 -3 3 -30 18 -60
33 -30 16 -63 32 -72 37 -10 5 -24 9 -32 9 -8 0 -22 7 -30 16 -9 8 -16 13 -16
9 0 -3 -10 1 -22 9 -12 9 -33 16 -45 16 -13 0 -23 5 -23 10 0 6 -6 10 -12 10
-7 0 -26 7 -42 15 -16 9 -31 13 -34 10 -3 -2 -17 2 -31 9 -14 8 -42 20 -61 26
-19 7 -44 16 -55 20 -11 4 -38 15 -60 23 -22 9 -58 19 -80 23 -107 19 -102 15
-117 100 -7 46 -15 69 -18 58 -4 -11 -9 8 -12 43 -3 34 -13 76 -22 94 -9 18
-16 37 -16 43 0 13 -36 46 -50 46 -5 0 -14 10 -21 21 -22 41 -29 -3 -29 -178
0 -128 -4 -184 -15 -217 -31 -91 -174 -309 -268 -410 -18 -18 -68 -73 -112
-121 -62 -67 -93 -93 -141 -116 -64 -29 -110 -73 -120 -115 -7 -29 -18 -31
-36 -5 -32 45 -87 65 -193 69 -90 4 -104 7 -141 33 -46 31 -135 121 -128 128
2 3 17 -8 33 -23 28 -27 51 -28 51 -3 0 7 -4 6 -11 -3 -9 -13 -10 -13 -6 0 2
8 10 16 18 16 32 3 33 5 19 14 -12 8 -11 10 8 10 l22 0 -20 20 c-23 23 -19 40
11 40 11 0 18 -4 15 -8 -3 -5 0 -9 7 -9 7 0 20 -4 30 -8 14 -6 16 -4 10 11 -4
11 -16 27 -28 37 -20 17 -19 17 16 11 39 -6 59 8 62 45 1 11 3 18 5 16 3 -2
13 0 24 6 11 6 29 12 40 14 11 3 23 7 27 11 3 4 -2 4 -11 1 -21 -7 -45 18 -27
29 8 5 9 3 4 -6 -5 -8 -3 -11 6 -8 8 3 15 10 15 16 1 7 2 19 3 27 0 8 6 15 12
15 25 0 79 33 72 44 -4 7 -1 7 8 -1 13 -10 19 -10 35 3 16 14 17 15 2 10 -12
-3 -18 0 -18 10 0 8 4 13 9 10 5 -3 11 3 14 13 2 11 20 27 38 36 36 19 65 44
52 46 -4 1 3 4 17 8 14 4 24 13 22 19 -1 7 1 11 5 11 20 -3 34 2 28 11 -3 6 0
10 8 10 8 0 22 10 31 23 9 12 14 16 11 10 -3 -7 -1 -13 4 -13 6 0 11 6 11 13
0 7 14 21 30 31 17 9 27 22 24 28 -4 7 -2 8 4 4 6 -4 20 1 31 11 68 63 91 83
97 83 3 0 21 12 39 28 17 15 42 34 55 42 37 24 88 73 64 61 -11 -5 -26 -17
-34 -25 -7 -9 -19 -16 -27 -16 -7 0 -16 -7 -19 -15 -4 -8 -11 -15 -16 -15 -5
0 -28 -15 -51 -32 -45 -36 -73 -54 -97 -65 -8 -4 -17 -9 -20 -12 -13 -15 -89
-62 -122 -76 -46 -19 -82 -20 -72 -2 6 8 3 8 -9 -1 -9 -8 -25 -11 -37 -7 -12
4 -27 1 -35 -5 -8 -7 -28 -10 -45 -8 -16 3 -30 0 -30 -5 0 -5 -6 -7 -12 -4 -7
2 -12 9 -11 15 2 6 -4 9 -12 6 -11 -5 -13 -2 -9 10 4 10 1 16 -9 16 -21 0 -31
-17 -15 -23 8 -3 6 -6 -5 -6 -11 -1 -15 -6 -11 -12 5 -9 -4 -10 -32 -4 -21 4
-48 8 -59 10 -11 1 -38 10 -59 19 -22 9 -41 14 -44 11 -3 -2 -16 5 -30 15 -13
11 -30 20 -36 20 -6 0 -4 -5 4 -10 8 -5 10 -10 4 -10 -6 0 -17 7 -24 15 -8 9
-21 13 -34 10 -15 -5 -17 -4 -7 3 11 8 9 14 -8 31 -13 13 -31 23 -41 24 -11 1
-16 6 -12 15 3 8 -2 19 -12 24 -9 5 -14 13 -11 19 4 5 1 9 -6 9 -7 0 -9 3 -6
6 11 12 -13 44 -33 44 -11 0 -20 7 -20 15 0 8 -5 15 -11 15 -7 0 -9 -10 -7
-24 3 -17 1 -23 -8 -19 -7 2 -11 15 -8 29 2 13 0 24 -6 24 -5 0 -10 7 -10 15
0 18 -5 18 -30 5 -12 -7 -18 -6 -17 3 1 32 -4 48 -13 42 -5 -3 -10 0 -10 7 -1
16 -46 68 -60 68 -14 0 -13 17 3 23 6 2 10 6 7 9 -3 2 -23 18 -46 36 -34 26
-40 36 -39 64 2 38 -4 60 -15 53 -4 -2 -7 3 -7 13 0 33 -3 43 -12 38 -4 -3 -8
5 -8 17 -1 47 -2 49 -19 32 -14 -13 -19 -14 -25 -3 -5 8 -2 16 7 21 20 12 7
28 -19 23 -17 -3 -22 1 -22 19 0 13 3 23 6 22 4 -1 8 3 9 8 0 6 -9 13 -22 16
l-23 5 24 13 c13 7 21 9 18 3 -4 -5 4 -7 18 -4 14 2 25 9 25 14 0 5 -4 7 -8 4
-4 -2 -14 -1 -22 5 -11 6 -11 9 -2 9 9 0 10 5 3 19 -12 22 -5 32 16 24 13 -5
13 -2 4 15 -9 17 -8 23 6 31 15 8 16 12 6 22 -11 11 -13 10 -13 -4 0 -21 -14
-22 -33 -2 -8 8 -18 11 -22 7 -4 -4 -6 -2 -5 3 5 21 0 46 -8 41 -4 -2 -14 0
-22 6 -12 8 -12 9 2 4 21 -6 33 10 16 20 -9 6 -5 10 12 15 l25 7 -23 7 c-19 6
-20 10 -10 23 10 12 10 14 1 8 -8 -4 -13 -2 -14 6 0 7 -5 3 -11 -9 -11 -23
-48 -32 -48 -12 0 5 5 7 11 3 6 -3 15 0 20 7 10 16 12 36 3 27 -3 -4 -22 0
-41 8 -39 17 -52 12 -33 -11 11 -13 10 -14 -3 -9 -19 7 -17 -16 3 -42 8 -10
10 -15 4 -11 -7 4 -14 -2 -17 -14 -4 -16 -3 -18 8 -9 9 8 14 7 18 -4 3 -8 3
-17 -1 -20 -6 -7 -14 -35 -13 -51 5 -63 8 -77 21 -86 13 -9 12 -10 -3 -5 -16
5 -21 -4 -18 -33 2 -8 -2 -10 -10 -5 -8 4 -10 3 -5 -5 4 -6 11 -9 15 -7 4 3
13 0 21 -5 12 -8 11 -9 -4 -7 -14 2 -20 -4 -23 -27 -2 -16 -10 -39 -18 -51 -7
-11 -10 -27 -6 -35 5 -8 5 -25 0 -39 -4 -14 -8 -19 -9 -12 -1 6 -3 15 -4 20
-1 4 -5 13 -10 21 -6 10 -5 12 2 7 7 -4 12 -2 12 3 0 6 -4 11 -10 11 -5 0 -10
5 -10 10 0 6 7 10 15 10 8 0 15 4 15 10 0 5 -8 6 -17 3 -16 -6 -16 -5 -4 10
12 15 12 17 -2 12 -8 -4 -18 -1 -23 6 -4 7 -3 10 4 5 6 -3 13 -2 17 4 10 15
23 12 28 -7 2 -10 3 -8 2 4 -1 14 2 20 9 16 6 -3 7 -2 3 3 -5 5 -12 9 -15 9
-4 0 -12 4 -18 8 -7 4 -11 1 -10 -6 0 -6 -3 -14 -8 -17 -15 -8 -15 43 0 67 8
12 14 25 14 28 0 9 -29 5 -35 -5 -4 -6 1 -7 12 -3 16 6 16 5 4 -11 -19 -22
-34 -1 -19 27 7 14 7 22 -1 27 -6 3 -14 20 -16 36 -14 80 -18 96 -29 100 -7 3
-13 24 -15 47 -1 23 -6 60 -11 82 -9 43 -33 192 -46 290 -8 63 -6 273 3 288 3
5 7 47 9 95 2 48 6 96 8 107 3 11 5 24 5 28 1 5 6 5 11 2 6 -4 8 -10 5 -15 -3
-5 -7 -50 -8 -102 -2 -51 -1 -82 1 -68 4 23 5 24 13 5 6 -17 8 -17 8 -2 1 9 8
17 16 17 8 0 15 4 15 9 0 5 -8 8 -17 6 -10 -1 -12 0 -5 2 6 3 12 11 12 18 0 8
-6 12 -14 9 -11 -4 -13 0 -9 15 7 27 20 27 29 -1 16 -47 12 -84 -8 -72 -6 4
-8 -2 -3 -15 6 -20 -2 -26 -27 -22 -5 0 -7 -5 -5 -12 1 -6 -6 -11 -15 -11 -10
1 -15 -2 -12 -7 3 -5 11 -9 19 -9 8 0 19 -8 24 -17 6 -11 11 -13 11 -5 0 7 6
10 13 7 6 -4 5 -1 -3 7 -8 7 -16 19 -18 26 -4 19 41 11 50 -8 4 -8 4 10 1 40
-3 30 -6 67 -6 82 1 15 -2 26 -6 24 -3 -2 -7 12 -9 31 -1 19 -9 49 -18 66 -14
29 -14 30 1 12 9 -11 18 -31 21 -45 10 -45 14 -52 27 -47 6 2 15 25 19 51 6
42 46 121 56 111 2 -2 -6 -17 -19 -34 -18 -24 -23 -46 -25 -101 -1 -38 1 -70
5 -70 3 0 5 -24 4 -52 0 -29 3 -58 8 -64 5 -7 9 -16 8 -20 -3 -13 12 -65 29
-99 21 -44 91 -135 103 -135 6 0 -3 14 -21 31 -33 33 -62 83 -55 93 3 3 2 4
-2 1 -10 -8 -42 74 -42 108 -1 24 8 32 32 28 5 -1 6 3 3 8 -3 5 1 12 10 15 32
12 89 -7 135 -45 26 -22 52 -39 58 -39 7 0 24 -8 38 -17 39 -26 253 -22 281 4
7 7 19 10 27 7 8 -4 15 -1 15 5 0 15 31 10 50 -8 13 -13 15 -13 18 0 1 9 25
25 53 37 35 14 47 17 39 6 -7 -7 -18 -14 -25 -14 -6 0 -17 -11 -23 -25 -7 -15
-20 -25 -32 -25 -11 0 -20 -4 -20 -10 0 -5 5 -10 10 -10 6 0 10 -5 10 -11 0
-5 -5 -7 -10 -4 -5 3 -10 1 -10 -4 0 -14 6 -14 30 -1 13 7 21 7 25 0 4 -6 11
-8 16 -5 12 8 11 1 -3 -30 -8 -18 -14 -22 -19 -13 -4 7 -2 19 4 27 10 12 9 13
-2 6 -10 -6 -12 -4 -6 5 6 9 4 11 -4 6 -7 -5 -10 -10 -7 -13 3 -3 -4 -14 -14
-26 -11 -11 -19 -30 -18 -41 0 -12 -3 -29 -7 -40 -8 -18 -7 -18 13 -1 16 14
18 22 9 36 -8 13 -7 21 3 34 10 13 15 13 21 3 12 -18 11 -30 -1 -23 -6 3 -10
-1 -10 -11 0 -13 3 -14 14 -5 29 24 68 91 62 106 -3 9 -2 13 4 10 6 -3 10 0
10 8 0 8 7 17 15 21 21 8 20 2 -24 -73 -50 -84 -114 -144 -198 -183 -128 -60
-312 -47 -434 30 -97 62 -177 217 -185 357 -2 44 -4 84 -4 88 0 5 -5 5 -11 2
-10 -7 -9 -23 7 -150 3 -22 12 -55 20 -73 8 -19 11 -39 7 -45 -3 -5 -1 -7 5
-3 6 3 15 -8 22 -29 26 -77 139 -179 230 -205 73 -21 166 -30 226 -20 73 12
195 51 189 61 -3 4 1 9 9 12 11 5 12 0 3 -24 -6 -16 -15 -29 -19 -29 -5 0 -3
-9 4 -21 11 -17 10 -22 -4 -33 -10 -7 -15 -15 -12 -18 13 -13 -32 -152 -59
-180 -35 -37 -60 -106 -63 -169 -3 -71 -19 -119 -41 -119 -8 0 -12 -4 -9 -9 3
-5 -6 -8 -19 -8 -14 0 -25 4 -25 10 0 6 -2 8 -5 5 -9 -8 6 -38 16 -32 5 3 9 0
9 -6 0 -7 -7 -9 -15 -6 -9 3 -18 -1 -21 -9 -4 -8 -11 -12 -18 -8 -14 9 15 -29
30 -39 6 -4 12 -28 12 -54 1 -52 29 -124 49 -124 7 0 13 -3 13 -7 0 -5 15 -8
32 -7 22 1 38 -5 46 -18 7 -10 18 -16 23 -12 5 3 8 0 7 -7 -4 -17 49 -45 99
-53 35 -5 41 -3 37 8 -3 9 -12 12 -22 9 -11 -5 -14 -2 -9 10 4 11 1 17 -6 17
-7 0 -22 7 -33 16 -19 15 -18 15 4 11 12 -3 20 -1 16 4 -3 5 1 9 8 10 7 0 3 5
-9 11 -12 6 -24 17 -28 26 -4 11 -2 12 7 5 7 -5 23 -10 36 -11 18 -1 20 2 10
12 -33 34 -49 58 -43 64 3 3 97 8 208 10 202 4 407 14 524 28 43 5 67 3 77 -5
8 -7 28 -16 44 -21 25 -7 30 -5 25 6 -3 8 0 14 7 14 7 0 10 6 7 14 -3 8 -1 17
6 20 9 3 8 7 -2 14 -7 5 -11 14 -8 18 3 5 -1 14 -8 21 -14 13 -58 -5 -79 -31
-14 -18 -117 -40 -171 -36 -22 1 -48 2 -58 2 -9 -1 -15 3 -12 9 4 5 1 9 -4 9
-6 0 -11 -6 -11 -12 0 -9 -3 -9 -8 -3 -9 14 -55 17 -47 4 4 -5 -1 -9 -9 -9 -9
0 -16 4 -16 10 0 13 -53 9 -62 -5 -5 -6 -8 -3 -8 8 0 23 -13 22 -35 -3 -18
-20 -51 -28 -40 -10 4 6 10 8 14 6 4 -3 8 1 8 8 0 11 -5 12 -24 3 -19 -9 -26
-8 -34 4 -7 11 -9 8 -10 -11 0 -17 -3 -20 -7 -10 -5 10 -25 16 -57 19 -60 4
-85 16 -85 39 0 10 -3 13 -8 6 -9 -14 -145 -27 -137 -14 10 16 -24 24 -40 10
-10 -9 -15 -9 -15 -1 0 6 5 11 10 11 6 0 10 4 10 10 0 5 -8 7 -17 4 -14 -5
-15 -4 -4 4 7 5 11 14 7 20 -3 6 -2 13 3 16 5 4 11 0 13 -9 2 -10 7 -12 18 -5
13 9 13 11 0 21 -13 9 -13 10 1 6 9 -3 29 1 44 9 30 15 59 19 35 4 -22 -13 -6
-22 26 -14 26 7 26 8 9 16 -14 5 -8 6 18 3 28 -5 39 -2 43 10 3 8 12 15 20 15
8 0 14 5 14 10 0 6 7 10 15 10 8 0 24 8 34 18 43 38 48 40 106 45 28 2 35 6
35 24 0 13 10 27 28 35 15 8 37 20 49 28 18 12 28 12 62 0 33 -11 46 -11 64
-1 27 14 83 81 68 81 -5 0 -12 -4 -15 -9 -4 -5 -27 -3 -53 5 -43 13 -53 13
-90 -1 -24 -9 -43 -20 -43 -24 0 -3 -11 -8 -26 -9 -14 -1 -23 2 -19 8 3 6 14
10 23 10 15 0 15 2 2 10 -8 5 -24 7 -36 4 -12 -3 -28 1 -36 10 -9 8 -18 13
-20 10 -3 -3 -9 10 -13 28 -7 33 -7 33 -15 8 -8 -24 -8 -25 -9 -2 -1 16 -6 22
-18 20 -13 -2 -17 3 -16 17 1 19 1 19 -11 3 -7 -10 -19 -18 -26 -18 -9 0 -8 6
4 19 12 13 14 21 6 26 -6 4 -14 4 -17 1 -4 -3 -1 -6 6 -6 7 0 10 -4 7 -9 -13
-20 -50 -5 -68 27 -10 18 -13 30 -6 26 8 -5 9 -2 5 9 -3 9 -2 19 3 22 6 4 10
1 10 -4 0 -6 7 -11 16 -11 8 0 13 -4 10 -9 -3 -5 3 -11 14 -14 28 -7 25 15 -6
38 -36 27 -48 53 -33 71 6 8 9 17 5 21 -3 3 -6 1 -6 -5 0 -6 -10 -17 -22 -23
-21 -11 -22 -11 -10 4 8 9 13 29 12 44 -1 15 -1 39 0 53 1 22 2 23 9 6 5 -14
10 -16 15 -7 4 6 2 20 -6 29 -12 15 -11 16 5 3 9 -7 17 -21 17 -29 0 -38 35
35 39 81 1 5 6 5 13 1 6 -4 8 -3 4 4 -3 6 2 16 11 22 17 11 17 11 1 6 -13 -4
-18 0 -18 15 0 11 5 17 10 14 6 -3 10 3 10 14 0 12 0 24 1 28 0 4 -5 9 -13 11
-9 2 -10 1 -2 -5 9 -6 7 -12 -4 -22 -14 -13 -15 -11 -9 25 4 21 7 48 8 59 1
14 4 11 9 -10 6 -21 7 -11 4 33 -2 36 1 62 6 62 6 0 10 5 10 11 0 5 -4 7 -10
4 -12 -7 -13 15 -2 32 14 23 82 44 131 41 27 -2 48 -5 46 -8 -7 -12 64 -248
85 -280 16 -25 11 -1 -15 73 -14 38 -28 97 -32 131 -6 65 -17 96 -34 96 -6 0
-17 6 -25 14 -18 18 -150 15 -146 -3 1 -7 -2 -9 -9 -5 -9 5 -10 1 -7 -14 4
-12 2 -20 -3 -16 -5 3 -9 16 -9 28 0 36 44 49 145 44 106 -6 126 -19 106 -73
-10 -29 -10 -48 4 -118 16 -76 29 -115 44 -127 7 -6 51 -98 51 -107 0 -3 -10
2 -22 13 l-22 19 22 -35 c35 -54 88 -162 96 -192 7 -31 21 -36 30 -13 3 8 2
15 -3 15 -5 0 -15 15 -22 33 -7 17 -28 59 -46 91 -19 32 -31 61 -29 63 2 3 11
-8 19 -24 19 -36 113 -125 155 -147 50 -26 49 -19 -1 15 -25 16 -70 57 -100
89 -118 127 -169 358 -106 482 53 105 239 164 487 156 152 -6 233 -25 304 -74
66 -46 96 -130 78 -219 -6 -28 -15 -76 -20 -109 -12 -68 -54 -163 -98 -223
-38 -52 -132 -116 -198 -136 -31 -10 -40 -16 -25 -16 41 -2 153 60 203 111 62
63 115 175 135 281 17 89 61 202 62 157 2 -81 10 -172 16 -178 4 -4 5 35 4 86
l-3 92 32 23 c17 12 32 29 33 37 0 10 3 8 9 -5 7 -17 9 -14 10 15 1 19 1 43 0
54 -1 12 2 16 11 10 9 -5 10 -2 6 10 -4 10 -4 23 0 29 4 7 8 18 9 27 0 8 3 35
5 60 2 25 10 51 18 59 9 10 12 29 8 59 -3 30 -2 40 5 31 6 -10 8 -3 6 24 -2
20 0 37 4 37 8 0 4 42 -5 57 -3 5 0 18 7 31 9 16 9 41 2 93 -7 52 -7 75 2 90
7 10 12 22 12 26 0 5 -5 1 -10 -7 -7 -12 -10 -12 -10 -1 0 8 -6 11 -16 7 -10
-4 -14 -2 -11 6 2 7 10 12 16 11 13 -3 14 36 2 56 -5 8 -6 24 -1 37 10 25 18
77 24 151 4 42 2 51 -10 46 -10 -3 -14 2 -14 18 0 13 -3 35 -6 49 -5 21 -4 22
6 10 10 -13 11 -12 5 5 -3 11 -9 34 -13 50 -6 30 -6 30 -12 5 -4 -14 -2 -29 4
-33 7 -6 6 -7 -3 -5 -10 3 -15 23 -16 68 -2 36 -8 78 -14 93 -6 16 -11 39 -11
52 0 13 -5 36 -12 52 -6 15 -12 31 -12 35 -1 3 -4 9 -8 13 -4 4 -4 13 -2 20 6
16 -22 75 -36 75 -6 0 -10 5 -10 10 0 6 -13 25 -29 43 -16 17 -41 50 -56 71
-33 48 -66 77 -82 71 -7 -2 -13 1 -13 7 0 6 -2 9 -5 6 -3 -3 -42 5 -87 18 -64
18 -86 29 -105 53 -13 17 -38 40 -56 52 -31 21 -31 21 6 -16 54 -54 46 -63
-13 -14 -31 26 -46 45 -39 49 6 4 -3 10 -19 13 -16 3 -37 14 -46 23 -29 29
-228 32 -211 3 11 -18 -15 -9 -36 12 -14 14 -39 24 -68 27 -27 3 -63 16 -86
32 -89 61 -126 74 -220 78 -67 3 -97 0 -118 -11 -16 -8 -24 -18 -19 -21 5 -3
-6 -22 -24 -42 -19 -19 -34 -40 -34 -45 0 -5 -6 -9 -14 -9 -8 0 -16 -5 -18
-11 -4 -13 -115 -14 -131 -1 -7 5 -27 13 -46 17 -18 4 -48 15 -65 26 -40 24
-136 48 -158 40 -26 -10 -158 -137 -150 -145 4 -4 -6 -4 -22 0 -25 6 -28 4
-23 -10 4 -10 1 -19 -8 -22 -8 -4 -15 -11 -15 -16 0 -6 12 -3 26 7 25 16 25
16 15 -3 -8 -15 -24 -20 -79 -24 -70 -5 -107 -21 -150 -67 -24 -26 -28 -41
-12 -41 6 0 10 -5 10 -11 0 -5 -4 -8 -8 -5 -14 8 -54 -25 -48 -40 3 -7 -4 -16
-15 -19 -33 -11 -22 -28 13 -21 l32 6 -24 -25 c-13 -14 -28 -24 -34 -22 -5 2
-27 -13 -48 -34 -44 -42 -53 -89 -17 -89 12 0 17 -4 13 -11 -3 -6 -17 -9 -30
-6 -25 4 -24 -3 5 -37 9 -11 11 -16 4 -13 -7 4 -14 -1 -18 -12 -3 -11 -12 -22
-20 -25 -7 -2 -19 -14 -25 -25 -9 -18 -8 -21 7 -18 10 1 24 7 32 11 10 7 12 5
6 -4 -6 -9 1 -11 26 -6 25 4 29 4 14 -3 -11 -5 -34 -10 -51 -10 -24 -1 -34 -7
-43 -28 l-13 -28 28 25 c20 18 24 19 14 5 -8 -11 -22 -28 -32 -38 -19 -19 -24
-47 -9 -47 6 0 13 5 16 10 3 6 11 10 17 10 7 0 6 -6 -2 -15 -7 -8 -19 -15 -27
-15 -8 0 -11 -4 -8 -10 3 -5 2 -10 -3 -10 -15 0 -23 -38 -30 -148 -6 -80 -4
-101 5 -97 10 3 13 -12 12 -58 0 -41 -3 -55 -8 -42 -8 19 -13 -3 -22 -95 -4
-37 14 -136 27 -151 8 -9 12 -23 8 -32 -3 -9 -2 -22 2 -28 4 -7 9 -37 10 -67
2 -31 9 -59 16 -63 12 -8 16 -39 19 -172 1 -62 5 -77 15 -73 8 3 14 1 14 -4 0
-6 -4 -10 -10 -10 -5 0 -10 -5 -10 -11 0 -5 4 -8 9 -4 5 3 17 -9 25 -26 21
-41 20 -43 -5 -25 -22 15 -45 11 -67 -11 -10 -9 -10 -13 -1 -13 6 0 0 -9 -14
-20 -26 -21 -34 -48 -43 -162 -5 -57 -2 -76 21 -133 24 -61 27 -82 31 -232 3
-144 7 -171 25 -209 24 -47 115 -144 136 -144 7 0 13 -6 13 -12 0 -33 21 -197
30 -228 5 -19 18 -72 30 -118 21 -87 35 -119 94 -217 l36 -59 -37 -33 c-21
-18 -33 -33 -28 -33 6 0 2 -5 -7 -11 -10 -5 -18 -17 -18 -24 0 -8 -4 -15 -8
-15 -21 0 -69 -114 -86 -205 -1 -5 -4 -14 -7 -20 -4 -5 -12 -27 -18 -47 -11
-33 -21 -41 -47 -37 -4 0 -10 -3 -13 -8 -3 -5 -37 -24 -76 -42 -38 -18 -83
-40 -99 -47 -16 -8 -35 -14 -43 -14 -7 0 -13 -3 -13 -7 0 -8 -17 -16 -140 -71
-36 -16 -87 -40 -115 -53 -27 -13 -56 -24 -62 -24 -7 0 -21 -7 -30 -15 -10 -9
-27 -14 -37 -12 -13 3 -17 0 -14 -9 4 -9 -2 -14 -16 -15 -12 -1 -42 -11 -67
-23 -61 -31 -121 -51 -131 -45 -4 3 -8 1 -8 -4 0 -5 -21 -17 -48 -27 -26 -10
-56 -24 -67 -32 -11 -7 -27 -13 -37 -13 -10 0 -18 -4 -18 -10 0 -5 -8 -10 -18
-10 -9 0 -45 -14 -80 -30 -34 -17 -68 -28 -75 -24 -6 4 -9 3 -4 -1 7 -9 -57
-44 -80 -45 -7 0 -13 -5 -13 -11 0 -5 -5 -7 -10 -4 -6 4 -25 -4 -43 -17 -18
-13 -47 -30 -64 -37 -18 -8 -33 -18 -33 -24 0 -6 -3 -8 -6 -4 -4 3 -12 1 -20
-6 -32 -29 -44 -37 -44 -32 0 18 -137 -71 -188 -122 -18 -18 -39 -33 -47 -33
-8 0 -15 -7 -15 -17 0 -9 -3 -14 -6 -10 -4 3 -15 -4 -25 -16 -10 -12 -18 -19
-19 -16 0 8 -73 -65 -101 -99 -11 -14 -19 -19 -19 -11 0 7 -7 2 -16 -11 -10
-14 -32 -41 -50 -60 -18 -19 -33 -39 -33 -43 2 -16 -24 -67 -33 -67 -5 0 -7
-4 -3 -10 5 -9 -12 -49 -27 -60 -4 -3 -7 -14 -7 -25 -1 -43 -14 -95 -22 -89
-5 3 -9 -6 -9 -19 0 -14 -6 -30 -14 -36 -18 -15 -27 -51 -13 -51 9 0 9 -2 0
-8 -6 -4 -15 -21 -19 -37 -4 -17 -10 -35 -15 -41 -5 -5 -15 -37 -22 -71 -8
-33 -21 -71 -30 -84 -8 -13 -15 -36 -15 -50 0 -14 -6 -41 -15 -60 -9 -19 -19
-54 -23 -79 -4 -25 -9 -48 -10 -52 -1 -5 -2 -25 -3 -45 -2 -31 -4 -34 -11 -18
-5 11 -9 16 -9 10 -1 -5 -6 -37 -12 -70 -6 -33 -10 -72 -10 -88 1 -15 -3 -27
-8 -27 -9 0 -20 -48 -25 -120 -8 -91 -7 -87 -15 -65 -6 15 -10 6 -16 -35 -4
-30 -9 -66 -10 -80 0 -14 -6 -34 -12 -45 -6 -11 -17 -73 -24 -139 -7 -66 -16
-110 -20 -99 -5 13 -9 5 -13 -27 -4 -25 -9 -54 -11 -65 -2 -11 -4 -35 -4 -53
-1 -18 -5 -31 -10 -28 -4 3 -11 -25 -15 -62 -8 -67 -13 -102 -16 -112 -1 -3
-2 -23 -2 -45 l0 -40 -7 35 -7 35 -7 -49 c-4 -27 -7 -64 -7 -82 0 -19 -3 -34
-8 -34 -4 0 -6 -21 -5 -47 2 -38 0 -43 -6 -23 l-9 25 -2 -25 c-1 -14 -3 -34
-6 -45 -2 -11 -7 -60 -11 -110 -5 -66 -9 -82 -14 -60 -7 33 -6 36 -15 -50 -9
-104 -17 -151 -24 -160 -5 -6 -12 -63 -16 -128 -4 -64 -10 -117 -13 -117 -3 0
-5 -28 -5 -62 2 -62 2 -62 -5 -13 l-6 50 -8 -70 c-4 -38 -10 -146 -14 -240 -4
-97 -10 -159 -14 -145 -5 17 -8 0 -9 -50 -1 -41 -8 -174 -14 -295 -11 -192
-13 -207 -16 -120 l-4 100 -6 -120 c-4 -66 -8 -150 -9 -187 l-1 -68 -592 -3
c-326 -1 1658 -3 4410 -5 l5002 -2 0 5000 c0 2750 -2 5000 -5 5000 -3 0 -5
-2248 -5 -4995z m-4695 4295 c3 -5 2 -10 -4 -10 -5 0 -13 5 -16 10 -3 6 -2 10
4 10 5 0 13 -4 16 -10z m-679 -53 c4 -4 -11 -7 -32 -7 -22 0 -49 -7 -60 -15
-10 -8 -23 -15 -29 -15 -16 0 35 32 63 40 30 8 48 7 58 -3z m84 -23 c0 -2 -9
0 -20 6 -11 6 -20 13 -20 16 0 2 9 0 20 -6 11 -6 20 -13 20 -16z m360 -26 c0
-5 -4 -8 -10 -8 -5 0 -10 10 -10 23 0 18 2 19 10 7 5 -8 10 -18 10 -22z m-55
2 c-10 -11 -20 -18 -23 -15 -7 6 18 35 31 35 5 0 2 -9 -8 -20z m-195 -10 c0
-5 -2 -10 -4 -10 -3 0 -8 5 -11 10 -3 6 -1 10 4 10 6 0 11 -4 11 -10z m727 -2
c18 -7 33 -16 33 -21 0 -4 4 -6 9 -2 5 3 13 0 17 -6 5 -9 0 -10 -17 -5 -13 4
-32 9 -42 10 -18 2 -58 36 -42 36 5 0 24 -5 42 -12z m116 5 c-7 -2 -19 -2 -25
0 -7 3 -2 5 12 5 14 0 19 -2 13 -5z m-1069 -18 c4 -11 -2 -15 -21 -15 -21 0
-24 2 -13 15 7 8 16 15 20 15 4 0 10 -7 14 -15z m-96 -22 c-15 -15 -30 -24
-33 -21 -8 7 35 48 49 48 6 0 -2 -12 -16 -27z m847 17 c3 -6 -5 -10 -19 -10
-13 0 -31 -7 -40 -15 -16 -16 -26 -19 -26 -7 0 9 51 41 67 42 6 0 15 -4 18
-10z m-737 -42 c-5 -15 -23 -11 -26 6 -2 11 2 14 13 10 9 -4 14 -11 13 -16z
m-53 2 c3 -5 -3 -10 -15 -10 -12 0 -18 5 -15 10 3 6 10 10 15 10 5 0 12 -4 15
-10z m1190 -9 c3 -5 1 -12 -4 -15 -5 -3 -11 1 -15 9 -6 16 9 21 19 6z m125
-72 c0 -4 -7 -6 -15 -3 -8 4 -15 10 -15 15 0 4 7 6 15 3 8 -4 15 -10 15 -15z
m-1620 -29 c0 -5 -4 -10 -10 -10 -5 0 -10 5 -10 10 0 6 5 10 10 10 6 0 10 -4
10 -10z m177 4 c-3 -3 -12 -4 -19 -1 -8 3 -5 6 6 6 11 1 17 -2 13 -5z m903
-29 c0 -5 -5 -3 -10 5 -5 8 -10 20 -10 25 0 6 5 3 10 -5 5 -8 10 -19 10 -25z
m-671 -13 l-1 -27 -8 25 c-4 14 -8 19 -9 11 -1 -8 -4 -12 -7 -8 -4 3 -4 13 0
22 9 24 26 8 25 -23z m766 28 c3 -5 1 -10 -4 -10 -6 0 -11 5 -11 10 0 6 2 10
4 10 3 0 8 -4 11 -10z m630 0 c4 -6 11 -8 16 -4 12 7 69 -15 69 -27 0 -5 -4
-9 -10 -9 -5 0 -10 4 -10 9 0 13 -43 22 -50 10 -4 -5 -14 -1 -25 11 -10 11
-13 20 -7 20 6 0 14 -5 17 -10z m-1745 -10 c0 -5 -4 -10 -10 -10 -5 0 -10 5
-10 10 0 6 5 10 10 10 6 0 10 -4 10 -10z m625 -69 c19 -43 19 -44 -4 -31 -11
5 -22 24 -26 42 -4 18 -9 42 -11 53 -4 16 -2 15 11 -5 8 -14 22 -40 30 -59z
m-96 38 c15 -16 33 -47 39 -67 l11 -37 -22 29 c-32 44 -69 106 -62 106 3 0 19
-14 34 -31z m-407 -11 c-7 -7 -12 -8 -12 -2 0 14 12 26 19 19 2 -3 -1 -11 -7
-17z m1811 -35 c12 -15 21 -31 20 -35 -2 -5 2 -8 9 -8 6 0 9 -3 6 -6 -11 -10
-49 17 -58 40 -5 13 -22 30 -39 37 -44 19 -39 32 5 14 20 -8 46 -27 57 -42z
m-897 -7 c4 -11 23 -41 43 -65 28 -35 31 -42 14 -32 -13 6 -23 15 -23 19 0 4
-11 20 -25 36 -14 16 -25 36 -25 44 0 9 -8 25 -17 36 -18 21 -18 21 4 2 12
-10 25 -28 29 -40z m144 21 c0 -5 -4 -5 -10 -2 -5 3 -10 14 -10 23 0 15 2 15
10 2 5 -8 10 -19 10 -23z m-733 -14 c-3 -10 -5 -4 -5 12 0 17 2 24 5 18 2 -7
2 -21 0 -30z m673 27 c0 -5 -2 -10 -4 -10 -3 0 -8 5 -11 10 -3 6 -1 10 4 10 6
0 11 -4 11 -10z m-713 -32 c-3 -7 -5 -2 -5 12 0 14 2 19 5 13 2 -7 2 -19 0
-25z m1012 -40 c1 -5 -3 -8 -9 -8 -5 0 -10 12 -9 28 0 24 1 25 9 7 5 -11 9
-23 9 -27z m-371 -41 c54 -56 75 -102 24 -54 -15 15 -33 27 -40 27 -6 0 -9 7
-5 16 5 13 2 15 -15 10 -12 -4 -23 -2 -28 5 -5 9 -2 10 12 6 12 -4 6 4 -14 21
-17 16 -29 31 -26 35 10 10 35 -8 92 -66z m-579 33 c11 -24 11 -24 -3 -6 -9
11 -16 24 -16 30 0 12 5 7 19 -24z m854 0 c-3 -12 -8 -19 -11 -16 -5 6 5 36
12 36 2 0 2 -9 -1 -20z m-523 -4 c0 -8 -4 -18 -10 -21 -5 -3 -10 3 -10 14 0
12 5 21 10 21 6 0 10 -6 10 -14z m49 -81 c1 -36 -16 6 -22 55 l-5 45 13 -40
c7 -22 14 -49 14 -60z m-622 53 c-3 -8 -6 -5 -6 6 -1 11 2 17 5 13 3 -3 4 -12
1 -19z m-297 -5 c0 -3 -6 -3 -14 0 -7 3 -19 0 -25 -6 -8 -8 -11 -8 -11 0 0 6
6 13 13 16 13 4 37 -2 37 -10z m217 -12 c7 -9 13 -25 13 -36 0 -16 -5 -14 -30
13 -16 18 -30 37 -30 42 0 13 33 -1 47 -19z m765 -13 c3 -18 8 -41 13 -50 4
-11 3 -18 -3 -18 -6 0 -14 17 -17 38 -4 20 -9 45 -12 56 -3 11 -1 16 5 12 5
-3 12 -20 14 -38z m676 -16 c16 12 16 11 0 -7 -9 -11 -22 -32 -28 -45 l-11
-25 6 25 c2 14 6 45 7 70 1 45 1 45 5 7 4 -34 6 -37 21 -25z m-1495 18 c4 -17
3 -19 -9 -9 -8 6 -14 18 -14 26 0 20 16 8 23 -17z m1334 -12 c-3 -8 -6 -5 -6
6 -1 11 2 17 5 13 3 -3 4 -12 1 -19z m306 7 c4 -8 2 -17 -3 -20 -6 -4 -10 3
-10 14 0 25 6 27 13 6z m-773 -5 c0 -5 -5 -10 -11 -10 -5 0 -7 5 -4 10 3 6 8
10 11 10 2 0 4 -4 4 -10z m560 -25 c-13 -14 -26 -23 -28 -20 -3 3 5 16 18 30
13 14 26 23 28 20 3 -3 -5 -16 -18 -30z m-495 -43 c-8 -9 -43 28 -48 51 -5 18
0 15 23 -12 16 -19 27 -37 25 -39z m794 49 c-27 -22 -32 -21 -23 3 3 9 15 16
26 16 19 0 19 -1 -3 -19z m-739 -49 c0 -3 -9 3 -20 13 -11 10 -20 23 -20 28 0
6 9 0 20 -13 11 -13 20 -25 20 -28z m-1250 21 c-1 -11 -26 -43 -34 -43 -3 0
-6 7 -6 16 0 8 5 12 10 9 6 -3 10 1 10 9 0 9 5 16 10 16 6 0 10 -3 10 -7z
m1990 -8 c-7 -8 -17 -15 -22 -15 -6 0 -5 7 2 15 7 8 17 15 22 15 6 0 5 -7 -2
-15z m-2065 -5 c-3 -5 -12 -10 -20 -10 -8 0 -17 5 -20 10 -4 6 5 10 20 10 15
0 24 -4 20 -10z m1665 3 c0 -4 -12 -20 -27 -35 -26 -28 -21 -40 7 -15 8 6 2
-3 -14 -21 -21 -22 -32 -28 -37 -20 -5 7 5 26 22 45 16 19 29 38 29 43 0 6 5
10 10 10 6 0 10 -3 10 -7z m165 -32 c-15 -30 -35 -42 -35 -21 0 6 5 10 10 10
6 0 15 12 21 26 5 15 12 24 15 21 3 -3 -2 -19 -11 -36z m-625 -4 c0 -18 -2
-19 -10 -7 -13 20 -13 43 0 35 6 -3 10 -16 10 -28z m894 16 c4 -10 4 -14 0
-10 -4 4 -13 2 -21 -4 -10 -9 -13 -8 -13 3 0 30 24 38 34 11z m-794 -15 c0
-18 -2 -20 -9 -8 -6 8 -7 18 -5 22 9 14 14 9 14 -14z m590 -15 c-11 -17 -11
-17 -6 0 3 10 6 24 7 30 0 9 2 9 5 0 3 -7 0 -20 -6 -30z m-1304 -20 c-7 -7
-46 16 -46 28 0 5 11 2 25 -7 14 -9 24 -19 21 -21z m641 -5 c-3 -7 -5 -2 -5
12 0 14 2 19 5 13 2 -7 2 -19 0 -25z m623 3 c-11 -21 -30 -37 -30 -25 0 8 30
44 37 44 2 0 -1 -9 -7 -19z m-997 -11 c-3 -12 -8 -19 -11 -16 -5 6 5 36 12 36
2 0 2 -9 -1 -20z m-853 0 c11 -7 5 -8 -20 -4 -43 8 -51 14 -19 14 13 0 31 -5
39 -10z m1440 -31 c0 -18 -1 -18 -20 -2 -11 10 -20 21 -20 24 0 4 9 5 20 2 11
-3 20 -14 20 -24z m413 -14 c-9 -19 -21 -32 -26 -28 -6 3 -6 8 0 12 6 3 15 16
22 29 19 35 22 25 4 -13z m237 30 c0 -2 -10 -10 -22 -16 -21 -11 -22 -11 -9 4
13 16 31 23 31 12z m-330 -15 c0 -5 -10 -15 -22 -21 -23 -12 -23 -12 -4 10 21
23 26 26 26 11z m22 -12 c-7 -7 -12 -8 -12 -2 0 14 12 26 19 19 2 -3 -1 -11
-7 -17z m525 -10 c-3 -8 -6 -5 -6 6 -1 11 2 17 5 13 3 -3 4 -12 1 -19z m-1777
-35 c0 -2 -11 4 -25 13 -14 9 -25 20 -25 25 0 5 11 -1 25 -13 14 -12 25 -23
25 -25z m737 25 c-3 -8 -6 -5 -6 6 -1 11 2 17 5 13 3 -3 4 -12 1 -19z m29 -4
c-3 -9 -6 -20 -6 -25 0 -5 -4 -9 -9 -9 -4 0 -6 11 -3 25 2 14 9 25 14 25 6 0
7 -7 4 -16z m29 -17 c-4 -15 -13 -31 -21 -38 -12 -10 -13 -8 -4 12 6 13 13 32
16 42 10 26 16 13 9 -16z m103 -21 c6 -32 10 -41 11 -23 1 27 14 36 26 17 3
-5 2 -10 -4 -10 -6 0 -8 -7 -4 -16 4 -10 -1 -17 -14 -20 -11 -3 -27 -21 -37
-40 -16 -34 -15 -34 3 -24 21 11 54 3 45 -11 -6 -10 58 1 66 11 7 9 101 32
108 26 3 -3 -3 -8 -12 -12 -23 -9 -20 -22 7 -27 24 -5 -40 -11 -83 -8 -22 1
-23 0 -7 -10 10 -6 27 -9 38 -6 13 4 19 0 19 -11 0 -13 2 -14 9 -4 5 8 24 14
44 15 20 0 34 5 31 9 -9 14 3 9 16 -7 11 -13 9 -15 -16 -13 -32 2 -54 -7 -54
-23 0 -6 18 -8 41 -6 24 2 45 -1 53 -8 7 -7 27 -16 44 -20 21 -4 30 -11 25
-18 -4 -7 2 -5 12 3 17 14 18 13 12 -4 -6 -15 -3 -17 11 -14 25 7 53 -9 46
-25 -5 -15 46 -43 55 -30 3 4 22 8 41 9 l35 1 -30 -13 -30 -12 38 -2 c20 -1
55 -3 77 -4 22 0 40 -4 40 -8 0 -10 -33 -18 -58 -13 -12 2 -22 0 -22 -6 0 -5
13 -9 29 -9 22 0 30 -6 35 -25 4 -14 13 -25 21 -25 7 0 17 -5 21 -12 4 -7 3
-8 -4 -4 -8 5 -10 2 -6 -9 5 -12 9 -13 20 -4 9 8 14 8 14 1 0 -6 -5 -14 -10
-17 -6 -4 2 -24 20 -50 16 -24 30 -47 30 -51 0 -4 6 -12 14 -18 8 -6 17 -26
21 -43 6 -29 4 -32 -12 -27 -15 5 -14 2 5 -14 12 -11 22 -23 22 -27 0 -3 -10
-4 -22 0 l-23 6 21 -18 c22 -19 33 -49 38 -98 2 -16 1 -22 -1 -12 -2 9 -11 17
-19 17 -8 0 -12 -4 -9 -10 3 -5 8 -34 9 -62 4 -65 16 -128 25 -128 3 0 7 -16
8 -35 4 -63 7 -80 15 -85 13 -10 -4 -50 -21 -50 -10 0 -55 11 -102 25 -229 69
-376 82 -544 48 -44 -8 -100 -16 -125 -17 -46 -3 -107 -22 -97 -32 3 -3 19 2
36 10 16 9 38 16 48 15 14 0 12 -3 -7 -11 -14 -7 -51 -27 -82 -45 l-57 -34
-103 9 c-57 6 -138 8 -180 6 -47 -2 -79 0 -83 7 -4 6 -18 14 -31 19 -13 5 -24
14 -24 20 0 16 14 12 38 -10 12 -12 23 -16 27 -10 4 6 11 7 17 4 6 -4 5 -10
-3 -15 -10 -6 -10 -9 -2 -9 30 0 20 32 -12 36 -5 0 -16 2 -23 2 -7 1 -10 7 -6
14 4 7 3 8 -4 4 -7 -4 -12 -2 -12 4 0 6 -12 16 -27 22 -26 11 -32 13 -50 17
-5 2 1 6 12 11 17 7 15 9 -10 8 -44 -2 -50 -8 -19 -24 15 -8 29 -12 32 -10 5
5 32 -19 32 -29 0 -3 -15 2 -32 11 -18 10 -64 28 -103 41 -68 23 -64 24 29 9
5 0 11 5 14 13 3 8 0 11 -7 7 -6 -4 -11 -2 -11 5 0 10 -3 10 -12 1 -16 -16
-33 -15 -20 1 8 9 -3 12 -51 14 -34 1 -93 6 -132 11 -58 7 -63 9 -30 12 l40 3
-35 6 c-33 6 -58 3 -120 -15 l-25 -7 25 22 25 22 -62 -6 c-41 -4 -68 -2 -81 6
-16 10 -27 9 -60 -9 -22 -11 -43 -18 -48 -14 -4 4 -4 2 -1 -5 8 -14 -18 -43
-39 -43 -8 0 -14 -5 -14 -11 0 -6 8 -8 18 -6 9 3 35 9 57 13 22 4 47 9 55 11
8 1 49 5 90 7 l75 5 -75 -9 c-41 -6 -120 -21 -174 -35 -124 -32 -216 -43 -216
-26 0 8 8 10 23 6 20 -6 21 -5 4 8 -22 18 -29 51 -16 80 8 18 9 16 6 -15 -2
-27 1 -38 11 -38 7 0 11 -4 8 -9 -7 -11 22 -36 31 -27 4 4 1 11 -7 16 -8 6
-12 10 -7 10 4 0 16 -5 26 -12 14 -9 27 -9 52 0 l34 12 -33 -5 c-19 -3 -47 2
-67 12 -32 15 -35 20 -35 62 0 30 -3 41 -9 32 -6 -9 -11 -10 -15 -2 -4 6 -2
12 3 12 6 1 15 2 21 3 19 2 55 39 42 44 -19 6 -14 22 7 22 17 0 38 40 32 64
-1 5 4 6 12 3 15 -6 21 31 7 48 -6 7 -2 16 10 25 11 8 20 24 20 35 0 16 -2 17
-10 5 -7 -11 -10 -11 -10 -2 0 12 39 33 51 26 3 -2 6 3 6 11 0 7 -14 16 -31
19 -25 5 -28 9 -16 16 8 5 26 10 40 10 18 0 21 3 11 9 -7 5 -10 14 -7 20 5 7
-3 11 -21 11 -24 1 -25 2 -10 11 9 5 22 7 27 4 6 -3 10 3 10 14 0 11 8 25 18
30 15 9 14 10 -6 11 -13 0 -20 4 -17 10 4 6 10 8 15 5 5 -3 11 -1 15 5 4 6 11
8 16 5 5 -4 5 5 -1 20 -9 24 -8 26 11 20 16 -5 20 -3 17 6 -3 8 -13 13 -22 13
-13 -2 -14 1 -5 12 6 8 15 12 19 9 4 -3 11 2 14 11 4 9 2 13 -5 8 -7 -4 -1 7
12 25 12 17 27 31 31 31 5 0 6 5 3 10 -4 6 -3 10 2 9 21 -4 33 2 33 16 0 13
25 21 53 16 4 0 7 4 7 9 0 6 9 10 20 10 11 0 20 4 20 10 0 5 -6 7 -14 4 -8 -3
-17 0 -22 7 -5 9 1 11 24 6 19 -4 32 -2 32 3 0 6 11 8 23 5 24 -6 27 -2 28 50
0 18 1 18 10 3 6 -11 16 -15 27 -11 14 6 15 4 4 -9 -7 -9 -9 -23 -5 -34 6 -17
8 -16 14 6 6 22 7 20 8 -11 1 -30 -5 -42 -36 -68 -22 -19 -30 -31 -21 -31 9 0
30 16 47 35 34 39 38 68 17 128 -16 44 -4 50 14 7 13 -32 24 -37 36 -18 5 8
10 6 15 -8 6 -18 8 -17 17 6 9 22 11 22 12 5 1 -19 2 -19 12 3 11 22 28 30 28
12 0 -5 4 -10 9 -10 5 0 7 10 4 23 -6 21 -5 21 24 -5 42 -40 53 -34 13 7 -45
46 -18 46 34 0 39 -34 69 -48 47 -22 -6 8 -8 17 -4 20 3 4 1 7 -6 7 -7 0 -10
4 -6 9 3 5 1 12 -5 16 -5 3 -10 10 -10 16 0 5 9 4 19 -3 11 -7 17 -16 14 -20
-6 -11 15 -38 29 -38 6 0 5 7 -2 15 -7 9 -10 18 -6 22 3 4 -4 17 -16 30 -27
29 -10 31 21 2 17 -16 20 -24 10 -35 -7 -9 -8 -14 -1 -14 6 0 12 6 15 13 3 9
7 9 17 0 10 -9 16 -8 28 3 8 8 11 18 8 22 -4 3 -11 1 -15 -6 -6 -9 -12 -7 -26
8 -10 11 -15 23 -11 27 4 4 11 1 17 -7 7 -13 10 -13 18 -1 11 17 31 6 31 -19
0 -28 17 -34 30 -10 7 13 7 20 0 20 -5 0 -10 5 -10 10 0 6 9 10 20 10 11 0 20
5 20 10 0 6 5 10 11 10 5 0 7 -4 4 -10 -3 -5 -1 -10 5 -10 7 0 9 -9 5 -22 -6
-21 -5 -22 8 -5 8 9 12 28 10 41 -3 13 0 27 6 30 6 4 12 1 12 -6 1 -7 2 -20 3
-28 1 -8 -2 -23 -7 -34 -6 -12 -6 -16 2 -12 6 4 18 22 27 41 9 19 21 35 27 35
7 0 7 -4 -1 -12 -7 -7 -12 -19 -12 -27 1 -14 2 -14 13 0 7 9 18 14 25 12 6 -3
12 0 12 6 0 6 7 8 15 4 14 -5 14 -7 0 -23 -16 -18 -11 -30 13 -30 9 0 12 6 8
16 -5 14 -4 15 8 5 8 -7 20 -10 26 -6 12 7 12 -2 0 -30 -8 -18 -9 -18 -9 -2
-1 10 -5 16 -10 13 -10 -7 -2 -56 10 -56 4 0 12 6 16 14 4 8 26 24 47 37 22
13 36 17 31 9 -6 -10 -4 -12 10 -6 16 6 16 4 4 -10 -8 -9 -15 -12 -17 -6 -4
13 -52 -6 -52 -20 0 -5 10 -4 21 3 17 8 23 8 30 -2 5 -9 21 0 56 35 26 27 42
45 36 42 -9 -5 -11 -2 -7 8 3 9 10 13 15 10 5 -3 6 2 3 10 -3 8 -1 23 4 33 10
20 6 43 -9 43 -5 0 -9 -10 -9 -23 0 -12 -7 -33 -16 -45 -8 -12 -13 -25 -11
-30 3 -4 -1 -13 -9 -19 -8 -8 -15 -9 -19 -3 -3 6 0 10 7 10 9 0 9 3 -2 10 -13
9 -13 12 2 20 9 6 24 30 33 53 22 59 42 56 53 -7z m42 45 c0 -5 -7 -14 -15
-21 -16 -14 -18 -10 -9 14 6 17 24 22 24 7z m230 -1 c0 -5 -7 -10 -16 -10 -8
0 -12 5 -9 10 3 6 10 10 16 10 5 0 9 -4 9 -10z m-467 -20 c-3 -11 -7 -20 -9
-20 -2 0 -4 9 -4 20 0 11 4 20 9 20 5 0 7 -9 4 -20z m815 -5 c-40 -27 -57 -33
-36 -12 17 17 50 36 63 37 5 0 -7 -11 -27 -25z m-1558 -7 c0 -6 -6 -5 -15 2
-8 7 -15 14 -15 16 0 2 7 1 15 -2 8 -4 15 -11 15 -16z m995 3 c-3 -6 -11 -11
-17 -11 -6 0 -6 6 2 15 14 17 26 13 15 -4z m-830 0 c3 -5 1 -12 -5 -16 -5 -3
-10 1 -10 9 0 18 6 21 15 7z m885 -12 c0 -14 -66 -75 -103 -95 -27 -14 -27
-14 -15 6 7 11 16 20 19 20 3 0 18 12 33 26 14 15 26 23 26 19 0 -4 7 -2 15 5
8 7 12 16 9 21 -3 5 0 9 5 9 6 0 11 -5 11 -11z m270 7 c0 -2 -8 -10 -17 -17
-16 -13 -17 -12 -4 4 13 16 21 21 21 13z m557 -38 c-3 -7 -5 -2 -5 12 0 14 2
19 5 13 2 -7 2 -19 0 -25z m-1022 3 c-3 -6 -11 -11 -17 -11 -6 0 -6 6 2 15 14
17 26 13 15 -4z m-350 -1 c-3 -5 -11 -10 -16 -10 -6 0 -7 5 -4 10 3 6 11 10
16 10 6 0 7 -4 4 -10z m655 -5 c0 -8 -4 -15 -10 -15 -5 0 -10 7 -10 15 0 8 5
15 10 15 6 0 10 -7 10 -15z m-1158 -39 c10 -19 10 -20 -6 -7 -9 8 -22 24 -28
35 -10 19 -10 20 6 7 9 -8 22 -24 28 -35z m448 18 c0 -8 -4 -12 -10 -9 -5 3
-10 10 -10 16 0 5 5 9 10 9 6 0 10 -7 10 -16z m658 -1 c2 -8 -5 -13 -17 -13
-11 0 -23 -4 -26 -10 -3 -5 -17 -10 -31 -10 -14 0 -27 -7 -30 -15 -7 -17 -30
-20 -39 -5 -5 9 66 52 82 49 5 -1 17 -1 28 0 17 1 18 3 5 12 -12 8 -12 10 4 7
11 -2 21 -9 24 -15z m134 -15 c-7 -7 -12 -8 -12 -2 0 14 12 26 19 19 2 -3 -1
-11 -7 -17z m511 -24 c-14 -25 -28 -43 -31 -40 -5 5 44 86 52 86 3 0 -7 -20
-21 -46z m-558 16 c-3 -5 -11 -10 -16 -10 -6 0 -7 5 -4 10 3 6 11 10 16 10 6
0 7 -4 4 -10z m685 -30 c0 -13 -1 -13 -10 0 -5 8 -10 22 -10 30 0 13 1 13 10
0 5 -8 10 -22 10 -30z m-1090 15 c-7 -9 -15 -13 -17 -11 -7 7 7 26 19 26 6 0
6 -6 -2 -15z m428 -20 c-6 -14 -13 -23 -15 -21 -5 5 15 46 22 46 3 0 -1 -11
-7 -25z m265 18 c-7 -2 -19 -2 -25 0 -7 3 -2 5 12 5 14 0 19 -2 13 -5z m-297
-19 c-9 -8 -20 -12 -26 -9 -19 12 -10 25 16 25 23 0 24 -1 10 -16z m459 1
c-11 -8 -25 -19 -32 -25 -7 -5 -16 -10 -20 -10 -12 1 50 50 62 50 6 -1 1 -7
-10 -15z m-75 -5 c0 -5 -5 -10 -11 -10 -5 0 -7 5 -4 10 3 6 8 10 11 10 2 0 4
-4 4 -10z m-1280 -10 c0 -5 -4 -10 -10 -10 -5 0 -10 5 -10 10 0 6 5 10 10 10
6 0 10 -4 10 -10z m1361 -13 c-6 -8 -8 -17 -4 -20 3 -4 2 -7 -4 -7 -17 0 -23
13 -12 27 6 7 16 13 21 13 7 0 6 -5 -1 -13z m-1464 -3 c-3 -3 -12 -4 -19 -1
-8 3 -5 6 6 6 11 1 17 -2 13 -5z m1058 -4 c-3 -5 -11 -10 -16 -10 -6 0 -7 5
-4 10 3 6 11 10 16 10 6 0 7 -4 4 -10z m100 0 c-3 -5 -13 -10 -21 -10 -8 0
-12 5 -9 10 3 6 13 10 21 10 8 0 12 -4 9 -10z m-65 -4 c0 -2 -7 -7 -16 -10 -8
-3 -12 -2 -9 4 6 10 25 14 25 6z m-1870 -25 c0 -6 -4 -13 -10 -16 -5 -3 -10 1
-10 9 0 9 5 16 10 16 6 0 10 -4 10 -9z m1920 -11 c0 -5 -5 -10 -11 -10 -5 0
-7 5 -4 10 3 6 8 10 11 10 2 0 4 -4 4 -10z m587 -27 c-3 -10 -5 -4 -5 12 0 17
2 24 5 18 2 -7 2 -21 0 -30z m-2527 -13 c0 -5 -4 -10 -10 -10 -5 0 -10 5 -10
10 0 6 5 10 10 10 6 0 10 -4 10 -10z m1960 0 c0 -5 -5 -10 -11 -10 -5 0 -7 5
-4 10 3 6 8 10 11 10 2 0 4 -4 4 -10z m105 -44 c14 -6 16 -10 7 -13 -8 -3 -19
0 -25 6 -6 6 -20 11 -31 12 -21 0 -21 0 -1 8 11 5 22 5 25 1 3 -3 14 -10 25
-14z m470 -6 c3 -5 1 -10 -4 -10 -6 0 -11 5 -11 10 0 6 2 10 4 10 3 0 8 -4 11
-10z m-495 -10 c0 -5 -7 -10 -16 -10 -8 0 -12 5 -9 10 3 6 10 10 16 10 5 0 9
-4 9 -10z m184 -106 c5 -14 4 -15 -9 -4 -17 14 -19 20 -6 20 5 0 12 -7 15 -16z
m56 6 c0 -5 -7 -10 -15 -10 -8 0 -15 5 -15 10 0 6 7 10 15 10 8 0 15 -4 15
-10z m22 -72 c4 -27 3 -29 -8 -14 -7 10 -10 24 -7 32 8 20 10 18 15 -18z m38
-3 c11 -13 10 -14 -4 -9 -9 3 -16 10 -16 15 0 13 6 11 20 -6z m-43 -67 c-3 -7
-5 -2 -5 12 0 14 2 19 5 13 2 -7 2 -19 0 -25z m68 -7 c3 -5 1 -12 -4 -15 -5
-3 -11 1 -15 9 -6 16 9 21 19 6z m45 -32 c0 -5 -4 -9 -10 -9 -5 0 -10 7 -10
16 0 8 5 12 10 9 6 -3 10 -10 10 -16z m-43 -31 c-3 -8 -6 -5 -6 6 -1 11 2 17
5 13 3 -3 4 -12 1 -19z m-2407 -55 c0 -5 -5 -15 -10 -23 -8 -12 -10 -11 -10 8
0 12 5 22 10 22 6 0 10 -3 10 -7z m257 -149 c-3 -3 -12 -4 -19 -1 -8 3 -5 6 6
6 11 1 17 -2 13 -5z m2150 -86 c-3 -8 -6 -5 -6 6 -1 11 2 17 5 13 3 -3 4 -12
1 -19z m-1948 -102 c-12 -10 -60 -16 -54 -6 3 5 18 10 32 10 15 0 24 -2 22 -4z
m98 -3 c-9 -2 -15 -9 -12 -14 4 -5 -5 -9 -19 -9 -14 0 -27 4 -31 9 -5 10 23
18 60 18 16 1 17 0 2 -4z m96 -40 c-7 -2 -21 -2 -30 0 -10 3 -4 5 12 5 17 0
24 -2 18 -5z m54 1 c-3 -3 -12 -4 -19 -1 -8 3 -5 6 6 6 11 1 17 -2 13 -5z
m-172 -49 c-60 -8 -111 -12 -113 -10 -7 7 105 23 163 23 48 0 38 -3 -50 -13z
m-155 -29 c0 -2 -7 -7 -16 -10 -8 -3 -12 -2 -9 4 6 10 25 14 25 6z m-50 -31
c-7 -9 -15 -13 -19 -10 -3 3 1 10 9 15 21 14 24 12 10 -5z m702 -24 c26 -16
52 -40 59 -53 10 -20 8 -20 -19 6 -17 16 -48 39 -69 52 -21 13 -33 24 -27 24
5 0 31 -13 56 -29z m-925 -6 c-4 -8 -2 -17 3 -20 5 -3 7 -12 3 -20 -9 -25 -18
-17 -17 15 2 37 3 40 10 40 3 0 4 -7 1 -15z m553 -35 c10 -6 4 -8 -21 -4 -22
4 -39 2 -43 -5 -9 -13 -26 -15 -26 -2 0 18 66 26 90 11z m-40 -20 c0 -5 -5
-10 -11 -10 -5 0 -7 5 -4 10 3 6 8 10 11 10 2 0 4 -4 4 -10z m106 -29 c-4 -5
2 -7 12 -5 9 3 33 -1 52 -10 33 -13 30 -14 -63 -10 -61 2 -95 0 -92 -6 4 -6 0
-10 -9 -10 -8 0 -21 -3 -30 -6 -9 -3 -16 -1 -16 5 0 6 7 11 16 11 8 0 13 4 10
9 -4 5 6 14 21 19 35 13 106 15 99 3z m394 -26 c0 -5 -5 -3 -10 5 -5 8 -10 20
-10 25 0 6 5 3 10 -5 5 -8 10 -19 10 -25z m-1056 0 c-7 -17 -34 -21 -34 -4 0
5 4 8 9 4 5 -3 12 -1 16 5 9 15 15 12 9 -5z m2414 -11 c-7 -15 -14 -21 -16
-15 -5 16 5 41 17 41 7 0 6 -10 -1 -26z m-2394 -124 c4 -14 -6 -2 -21 25 -19
33 -35 49 -46 49 -17 -2 -17 -1 -1 17 16 18 18 17 39 -24 12 -23 25 -53 29
-67z m96 106 c0 -9 -30 -14 -35 -6 -4 6 3 10 14 10 12 0 21 -2 21 -4z m615 -6
c3 -5 -1 -10 -9 -10 -9 0 -16 5 -16 10 0 6 4 10 9 10 6 0 13 -4 16 -10z m-165
-47 c0 -14 -3 -23 -7 -19 -10 10 -11 46 -1 46 4 0 8 -12 8 -27z m250 -23 c0
-6 4 -9 9 -6 5 4 7 -2 4 -13 -4 -16 3 -19 56 -25 39 -5 59 -11 55 -18 -4 -6 1
-8 15 -3 11 3 21 4 21 0 0 -12 -53 -25 -110 -26 -42 -1 -60 -6 -65 -17 -3 -8
-3 -17 0 -20 3 -3 5 0 5 6 0 7 7 12 15 12 32 0 8 -34 -25 -35 -8 -1 -24 -4
-35 -7 -41 -13 -121 -19 -105 -9 11 8 4 11 -28 11 -26 0 -41 -4 -37 -10 3 -5
-1 -10 -9 -10 -9 0 -16 4 -16 10 0 6 -9 6 -25 0 -26 -10 -28 -8 -26 26 2 16
-6 25 -28 32 -17 6 -31 16 -31 21 0 6 6 8 14 5 8 -3 17 -1 21 5 3 6 15 11 26
11 13 0 18 -4 13 -12 -4 -7 -3 -8 4 -4 21 13 12 25 -23 32 -19 3 -38 11 -41
16 -4 7 5 7 27 2 19 -4 45 -9 59 -9 14 -1 33 -5 43 -10 10 -4 48 -5 83 -2 73
5 93 21 94 71 l0 30 20 -22 c11 -12 20 -26 20 -32z m247 -17 c-2 -16 -4 -5 -4
22 0 28 2 40 4 28 2 -13 2 -35 0 -50z m-1140 -5 c-3 -8 -6 -5 -6 6 -1 11 2 17
5 13 3 -3 4 -12 1 -19z m210 -50 c-3 -8 -6 -5 -6 6 -1 11 2 17 5 13 3 -3 4
-12 1 -19z m977 7 c-4 -8 -8 -15 -10 -15 -2 0 -4 7 -4 15 0 8 4 15 10 15 5 0
7 -7 4 -15z m-57 -27 c-3 -7 -5 -2 -5 12 0 14 2 19 5 13 2 -7 2 -19 0 -25z
m-1140 -25 c-3 -10 -5 -2 -5 17 0 19 2 27 5 18 2 -10 2 -26 0 -35z m1123 18
c0 -6 -4 -13 -10 -16 -5 -3 -10 1 -10 9 0 9 5 16 10 16 6 0 10 -4 10 -9z
m-1014 -46 c0 -14 -4 -25 -8 -25 -4 0 -8 11 -8 25 0 14 4 25 8 25 4 0 8 -11 8
-25z m986 -7 c-7 -7 -12 -8 -12 -2 0 14 12 26 19 19 2 -3 -1 -11 -7 -17z
m-1063 -93 c0 -11 -7 0 -15 25 -17 56 -17 64 1 25 8 -16 14 -39 14 -50z m76
-1 c-2 -31 -7 -59 -10 -63 -7 -6 -4 86 3 107 9 25 11 11 7 -44z m1080 16 c3
-5 1 -10 -4 -10 -6 0 -11 5 -11 10 0 6 2 10 4 10 3 0 8 -4 11 -10z m-1130
-225 c3 -80 11 -158 17 -173 6 -15 12 -30 12 -35 1 -4 14 -23 30 -43 22 -28
31 -33 38 -23 8 11 9 11 5 -1 -2 -8 3 -24 12 -35 8 -11 -6 0 -33 25 -74 69
-87 106 -92 268 -2 75 -6 153 -9 172 -4 28 -3 31 5 13 5 -12 12 -88 15 -168z
m1115 145 c0 -5 -4 -10 -10 -10 -5 0 -10 5 -10 10 0 6 5 10 10 10 6 0 10 -4
10 -10z m-1082 -55 c0 -25 -4 -47 -9 -51 -10 -6 -12 39 -3 74 9 32 11 28 12
-23z m1002 -50 c0 -8 -4 -15 -8 -15 -5 0 -9 7 -9 15 0 8 4 15 9 15 4 0 8 -7 8
-15z m-980 -57 c-2 -81 1 -93 10 -43 l7 40 2 -42 c0 -23 -5 -47 -12 -55 -8 -7
-12 -19 -9 -26 2 -6 -1 -12 -6 -12 -11 0 -10 25 0 36 4 3 2 16 -4 29 -10 22
-3 135 8 135 3 0 5 -28 4 -62z m1010 -18 c0 -5 -7 -7 -15 -4 -8 4 -12 10 -9
15 6 11 24 2 24 -11z m-57 -42 c-1 -24 -5 -52 -7 -63 -2 -11 -5 -26 -5 -34 -1
-11 -4 -11 -16 -1 -12 10 -16 9 -21 -4 -6 -15 -8 -15 -20 1 -16 21 -18 53 -4
53 5 0 12 11 16 24 3 13 16 29 30 36 13 8 24 17 24 22 0 4 1 8 3 8 2 0 2 -19
0 -42z m174 -150 c-3 -8 -6 -5 -6 6 -1 11 2 17 5 13 3 -3 4 -12 1 -19z m-377
-132 c0 -3 -4 -8 -10 -11 -5 -3 -10 -1 -10 4 0 6 5 11 10 11 6 0 10 -2 10 -4z
m-456 -181 c3 -8 1 -15 -4 -15 -6 0 -10 7 -10 15 0 8 2 15 4 15 2 0 6 -7 10
-15z m-54 -5 c0 -5 -2 -10 -4 -10 -3 0 -8 5 -11 10 -3 6 -1 10 4 10 6 0 11 -4
11 -10z m70 -35 c19 -22 8 -25 -12 -3 -10 10 -14 18 -9 18 5 0 14 -7 21 -15z
m-56 -24 c3 -5 -1 -11 -9 -14 -9 -4 -12 -1 -8 9 6 16 10 17 17 5z m366 5 c0
-2 -7 -7 -16 -10 -8 -3 -12 -2 -9 4 6 10 25 14 25 6z m-386 -71 c3 -8 1 -15
-3 -15 -5 0 -11 7 -15 15 -3 8 -1 15 3 15 5 0 11 -7 15 -15z m6 -45 c0 -6 -7
-10 -15 -10 -8 0 -15 2 -15 4 0 2 -3 12 -7 21 -5 15 -3 16 15 6 12 -7 22 -16
22 -21z m-20 -105 c0 -5 -5 -3 -10 5 -5 8 -10 20 -10 25 0 6 5 3 10 -5 5 -8
10 -19 10 -25z m77 -226 c-5 -3 -7 -35 -4 -70 2 -35 0 -75 -4 -89 -7 -24 -9 2
-14 150 -2 52 5 65 19 38 7 -13 8 -26 3 -29z m20 -111 c-3 -8 -6 -5 -6 6 -1
11 2 17 5 13 3 -3 4 -12 1 -19z m0 -40 c-3 -8 -6 -5 -6 6 -1 11 2 17 5 13 3
-3 4 -12 1 -19z m2036 -245 c-7 -2 -19 -2 -25 0 -7 3 -2 5 12 5 14 0 19 -2 13
-5z m-983 -87 c0 -2 -7 -7 -16 -10 -8 -3 -12 -2 -9 4 6 10 25 14 25 6z m-446
-399 c11 -10 10 -15 -2 -27 -14 -13 -15 -12 -9 3 4 11 1 17 -9 17 -8 0 -12 5
-9 10 8 13 14 13 29 -3z m556 -337 c-19 -13 -30 -13 -30 0 0 6 10 10 23 10 18
0 19 -2 7 -10z m-570 -10 c0 -12 -77 -33 -90 -25 -18 11 1 25 26 19 14 -4 24
-2 24 5 0 6 9 11 20 11 11 0 20 -4 20 -10z m185 -1 c12 -19 -5 -23 -22 -6 -16
16 -16 17 -1 17 9 0 20 -5 23 -11z m443 -1 c17 -17 15 -31 -3 -24 -10 3 -15
-1 -15 -11 0 -14 -2 -14 -20 2 -30 27 -26 34 21 44 3 0 10 -4 17 -11z m-54
-39 c14 -17 26 -40 26 -52 0 -18 -2 -19 -10 -7 -7 11 -10 11 -10 2 0 -7 -4
-10 -10 -7 -5 3 -10 -1 -10 -9 0 -9 7 -16 15 -16 8 0 15 -4 15 -10 0 -23 -53
-9 -85 23 -51 51 -61 58 -79 51 -9 -3 -14 -10 -11 -15 3 -4 12 -6 19 -3 7 3
27 -11 44 -30 17 -20 38 -36 47 -36 25 0 17 -19 -16 -36 -22 -11 -28 -18 -19
-24 9 -6 9 -12 1 -28 -6 -12 -11 -25 -10 -29 5 -32 -5 -32 -24 -2 -34 55 -78
101 -140 148 -32 23 -57 47 -57 53 0 6 8 4 18 -5 23 -21 39 -22 22 -2 -14 17
0 21 16 5 8 -8 19 -8 38 0 15 5 31 8 36 5 4 -3 10 2 13 9 7 17 59 15 65 -3 2
-6 9 -11 15 -11 8 0 7 4 -1 12 -18 18 -15 28 8 28 11 0 20 5 20 10 0 21 39 9
64 -21z m-454 -28 c0 -5 -10 -11 -22 -14 -21 -6 -21 -7 -3 -27 26 -29 14 -34
-17 -6 l-25 24 -39 -34 c-41 -36 -74 -44 -74 -19 0 8 6 16 13 16 6 1 17 2 22
4 6 1 16 3 23 3 6 1 12 7 12 13 0 5 -5 7 -12 3 -7 -4 -8 -3 -4 5 4 7 -2 15
-16 20 -16 7 -18 10 -6 10 9 1 19 -3 22 -8 4 -6 98 7 124 18 1 1 2 -3 2 -8z
m40 -11 c0 -5 -4 -10 -10 -10 -5 0 -10 5 -10 10 0 6 5 10 10 10 6 0 10 -4 10
-10z m130 -48 c130 -100 167 -142 154 -177 -4 -10 -1 -20 6 -25 9 -6 7 -10 -9
-15 -11 -3 -21 -11 -21 -17 0 -6 -3 -9 -6 -5 -3 3 -14 -2 -25 -11 -10 -9 -15
-19 -10 -22 5 -3 12 -16 16 -29 5 -18 4 -22 -5 -16 -8 5 -11 4 -7 -2 4 -5 -2
-19 -13 -31 -18 -19 -18 -22 -4 -37 9 -8 13 -22 10 -30 -4 -12 -20 -1 -63 42
-32 31 -57 61 -55 66 1 5 -2 6 -7 3 -5 -3 -25 11 -45 31 -32 33 -34 39 -19 45
13 5 11 6 -8 5 -16 -1 -40 10 -62 28 -43 36 -49 55 -8 26 34 -25 45 -26 37 -6
-9 25 4 18 54 -27 16 -14 19 -14 24 -2 3 9 11 12 17 8 8 -4 9 -3 5 4 -4 6 -13
9 -21 5 -9 -3 -22 0 -30 7 -13 11 -13 14 1 25 23 17 90 -7 126 -46 16 -16 33
-29 39 -29 5 0 -9 20 -32 45 -23 24 -49 43 -58 42 -27 -3 -101 25 -101 39 0 7
-6 14 -12 17 -7 2 -10 7 -7 10 3 4 23 -5 44 -20 35 -24 100 -39 88 -20 -2 4
-12 7 -21 7 -9 1 -30 12 -47 25 -36 30 -19 34 18 5 24 -19 27 -19 42 -4 12 13
19 14 28 5 13 -13 31 -15 22 -2 -3 5 -1 13 5 16 17 10 -37 55 -66 55 -13 0
-24 -4 -24 -10 0 -5 -4 -10 -10 -10 -5 0 -10 7 -10 15 0 8 7 15 15 15 8 0 15
5 15 10 0 6 -6 10 -14 10 -8 0 -16 3 -19 8 -2 4 -2 1 0 -7 2 -10 -4 -12 -23
-7 -19 5 -30 1 -44 -16 -10 -13 -22 -19 -27 -14 -4 5 -2 11 5 13 17 6 15 23
-2 23 -8 0 -18 5 -22 11 -4 8 3 9 24 4 21 -4 34 -2 44 9 22 25 40 19 118 -42z
m-390 -18 c8 -3 21 -8 28 -10 6 -2 12 -11 12 -20 0 -16 -1 -16 -18 -1 -10 10
-21 15 -23 14 -2 -2 -17 10 -34 27 -25 25 -26 27 -5 13 14 -10 32 -20 40 -23z
m166 5 c19 -22 19 -22 -3 -10 -24 12 -39 31 -25 31 5 0 17 -10 28 -21z m-31
-17 c-3 -3 -11 0 -18 7 -9 10 -8 11 6 5 10 -3 15 -9 12 -12z m162 -7 c-9 -8
-30 -18 -47 -21 -19 -4 -29 -11 -26 -19 3 -8 -6 -16 -20 -19 -13 -4 -24 -13
-24 -21 0 -9 -6 -12 -15 -9 -8 4 -15 1 -15 -5 0 -9 -6 -9 -22 0 l-23 12 23 10
c12 6 22 14 22 20 0 5 7 7 15 3 8 -3 15 -1 15 4 0 6 7 10 15 10 8 0 19 9 25
21 9 15 18 19 35 15 14 -4 27 0 35 9 7 9 15 13 18 11 2 -3 -3 -12 -11 -21z
m-331 -6 c19 -22 19 -22 -3 -10 -13 6 -23 16 -23 21 0 15 5 12 26 -11z m664
-29 c0 -5 -2 -10 -4 -10 -3 0 -8 5 -11 10 -3 6 -1 10 4 10 6 0 11 -4 11 -10z
m-610 -14 c0 -3 -4 -8 -10 -11 -5 -3 -10 -1 -10 4 0 6 5 11 10 11 6 0 10 -2
10 -4z m90 -10 c0 -11 -19 -15 -25 -6 -3 5 1 10 9 10 9 0 16 -2 16 -4z m-32
-31 c12 -14 18 -25 14 -25 -5 0 -19 11 -32 25 -13 14 -19 25 -14 25 6 0 20
-11 32 -25z m182 15 c0 -5 -4 -10 -9 -10 -6 0 -13 5 -16 10 -3 6 1 10 9 10 9
0 16 -4 16 -10z m-370 -30 c0 -5 -4 -10 -10 -10 -5 0 -10 5 -10 10 0 6 5 10
10 10 6 0 10 -4 10 -10z m760 -10 c0 -5 -5 -10 -11 -10 -5 0 -7 5 -4 10 3 6 8
10 11 10 2 0 4 -4 4 -10z m-464 -49 l20 -15 -25 -23 c-14 -12 -21 -23 -15 -23
6 0 17 7 24 15 21 25 46 17 89 -30 23 -25 45 -45 49 -45 11 0 115 -110 135
-142 19 -31 17 -32 -27 -18 -17 5 -59 15 -94 22 -43 8 -69 20 -85 37 -17 19
-18 23 -5 18 10 -3 20 -2 23 2 3 5 -18 9 -46 9 -58 1 -109 10 -108 20 3 20 -3
25 -12 12 -9 -13 -10 -13 -6 0 2 8 -2 23 -11 33 -24 27 -6 20 33 -14 22 -20
41 -29 51 -25 9 4 22 2 29 -4 8 -7 12 -5 12 6 0 10 -8 14 -22 12 -24 -3 -85
43 -85 63 0 10 -3 10 -12 1 -15 -15 -48 -16 -48 -2 0 6 3 11 8 11 52 8 60 7
65 -12 3 -10 10 -19 16 -19 14 0 14 27 1 35 -6 3 1 18 15 33 l26 27 -38 34
c-33 29 -34 31 -8 16 17 -10 39 -25 51 -34z m-36 -13 c0 -6 -6 -5 -15 2 -8 7
-15 14 -15 16 0 2 7 1 15 -2 8 -4 15 -11 15 -16z m-162 0 c-6 -18 -28 -21 -28
-4 0 9 7 16 16 16 9 0 14 -5 12 -12z m530 -73 c-3 -3 -9 2 -12 12 -6 14 -5 15
5 6 7 -7 10 -15 7 -18z m12 -81 c0 -8 -4 -12 -10 -9 -5 3 -10 10 -10 16 0 5 5
9 10 9 6 0 10 -7 10 -16z m-384 -54 c14 0 22 4 19 10 -6 10 5 8 58 -12 30 -11
38 -29 10 -22 -17 4 -69 11 -105 13 -12 1 -18 9 -17 24 1 16 2 18 6 5 3 -11
14 -18 29 -18z m4 20 c0 -5 -4 -10 -10 -10 -5 0 -10 5 -10 10 0 6 5 10 10 10
6 0 10 -4 10 -10z m-20 -54 c0 -7 -7 -27 -15 -42 -8 -16 -15 -41 -15 -56 0
-17 -10 -34 -27 -47 -16 -12 -32 -24 -38 -29 -5 -4 -28 -21 -50 -37 l-40 -29
27 30 c20 22 25 33 17 41 -8 8 -8 13 0 17 6 4 11 0 11 -10 0 -10 3 -14 7 -10
11 10 10 40 -1 48 -11 8 -56 -12 -56 -24 0 -5 -4 -7 -9 -3 -5 3 -17 -2 -25
-11 -9 -9 -16 -11 -16 -4 0 17 22 36 50 45 14 4 35 14 48 21 25 16 54 8 31 -8
-11 -8 -11 -9 1 -5 8 2 16 12 18 23 2 10 8 29 14 41 6 13 8 26 5 30 -4 3 -7 1
-7 -6 0 -6 -10 -22 -21 -34 l-21 -22 17 35 c10 19 22 41 27 48 14 17 68 16 68
-2z m-118 -47 c-14 -37 -42 -59 -73 -59 -14 0 7 36 44 76 38 42 50 35 29 -17z
m265 18 c44 -19 50 -25 41 -40 -5 -10 -8 -21 -5 -24 3 -2 10 5 16 16 19 35 38
14 45 -50 4 -33 9 -66 12 -73 11 -28 -75 -131 -300 -362 -87 -90 -172 -179
-188 -199 -17 -19 -37 -35 -45 -35 -8 0 -12 -4 -9 -8 3 -5 -10 -24 -29 -42
-40 -39 -45 -33 -13 13 12 17 17 28 11 24 -15 -9 -24 18 -11 31 7 7 5 17 -6
33 -21 31 -20 51 2 47 18 -3 19 2 8 38 -5 16 3 29 32 56 l39 35 -19 24 c-17
22 -19 22 -14 3 4 -14 -2 -28 -19 -44 -14 -13 -25 -18 -25 -12 0 7 5 12 11 12
5 0 8 4 5 9 -4 5 -2 11 4 13 12 4 14 47 5 98 -5 31 -5 33 8 18 8 -10 17 -15
20 -11 4 3 7 -6 7 -21 0 -21 4 -27 18 -24 9 2 16 9 15 16 -2 6 4 9 12 6 9 -4
16 0 16 7 5 39 3 55 -6 62 -6 4 0 10 13 13 17 5 21 11 16 23 -3 9 -9 26 -11
39 -7 29 -13 27 -43 -11 -20 -25 -21 -30 -7 -24 11 4 16 3 12 -4 -4 -5 -15 -7
-26 -4 -11 4 -19 2 -19 -4 0 -10 14 -15 32 -12 4 0 5 -6 1 -15 -4 -12 -8 -12
-13 -4 -4 7 -12 10 -17 7 -5 -3 -9 2 -10 12 -1 10 21 40 49 67 28 27 48 42 46
34 -3 -9 5 -29 18 -45 23 -28 24 -29 24 -7 0 12 -6 22 -12 22 -7 0 -5 5 5 11
9 5 17 21 17 34 0 14 5 25 12 25 6 0 8 3 5 7 -4 3 -16 -2 -27 -12 -11 -10 -23
-16 -26 -13 -3 3 13 21 36 39 22 19 53 44 68 56 33 28 46 29 32 4 -5 -11 -10
-26 -10 -33 0 -7 7 0 15 16 8 15 13 31 10 35 -5 10 23 51 35 51 5 0 4 -14 -1
-32 -5 -18 -9 -42 -9 -53 1 -19 2 -19 14 -3 7 10 15 15 18 12 3 -2 4 9 2 26
-2 19 0 29 6 25 6 -4 10 10 10 34 0 49 15 91 32 91 7 -1 36 -11 65 -23z
m-3220 -9 c-3 -8 -6 -5 -6 6 -1 11 2 17 5 13 3 -3 4 -12 1 -19z m3101 -2 c-2
-12 -11 -31 -21 -40 -20 -21 -21 -14 -5 31 14 38 30 44 26 9z m286 -2 c9 -3
16 -11 16 -18 0 -12 -40 -41 -41 -29 0 5 -2 18 -5 31 -4 23 3 26 30 16z m65
-48 c9 -11 9 -15 -1 -19 -8 -3 -6 -6 5 -6 11 -1 15 -5 11 -13 -5 -8 -2 -9 10
-5 9 4 15 3 12 -2 -3 -5 1 -12 10 -15 9 -4 14 -9 11 -12 -3 -3 3 -14 13 -24
22 -22 36 -68 49 -161 9 -62 9 -65 -22 -109 -146 -213 -154 -223 -272 -345
-22 -23 -87 -92 -144 -153 -57 -62 -111 -112 -120 -113 -9 0 -11 -3 -6 -5 6
-2 -16 -33 -50 -69 -33 -35 -105 -113 -160 -174 -55 -60 -103 -110 -106 -110
-3 -1 -6 6 -6 14 0 8 5 12 10 8 5 -3 6 3 2 16 -3 11 -1 29 5 38 8 15 9 12 4
-11 -5 -21 -4 -27 5 -22 14 9 14 51 0 78 -8 15 -8 19 0 14 15 -10 14 0 -4 34
-9 18 -11 31 -5 35 6 3 10 14 10 24 0 9 16 36 35 58 43 50 46 81 4 35 -29 -32
-55 -39 -30 -8 7 8 8 16 4 18 -4 3 -2 3 5 2 14 -4 16 12 2 21 -7 4 -7 12 0 25
7 13 7 21 0 25 -6 4 -7 12 -1 22 4 9 6 25 4 37 -3 15 -2 17 4 8 7 -9 10 -4 10
17 0 27 -2 28 -13 13 -8 -10 -13 -12 -14 -5 0 11 20 36 85 109 11 13 389 407
420 439 11 11 38 42 59 68 21 26 40 46 43 43 10 -10 14 -66 4 -66 -6 0 -8 6
-5 14 4 11 0 13 -15 9 -23 -6 -37 -33 -16 -33 7 0 17 -5 21 -12 5 -8 0 -9 -15
-5 -22 5 -22 5 -5 -14 9 -10 24 -19 33 -20 12 0 13 -2 2 -6 -11 -4 -11 -7 0
-14 7 -4 21 -3 32 2 16 9 17 8 9 -8 -13 -23 -70 -25 -98 -3 -18 14 -18 14 -5
-3 17 -21 58 -46 46 -28 -7 12 34 9 55 -4 5 -3 10 -3 10 2 0 4 10 19 21 33
l21 25 -16 -27 c-15 -25 -15 -30 1 -62 9 -19 21 -32 26 -29 6 4 8 0 5 -8 -3
-8 0 -20 7 -26 11 -10 17 -7 30 13 9 13 13 29 10 35 -4 5 -3 9 2 8 20 -3 27 2
13 11 -13 8 -12 10 3 10 9 0 17 5 17 11 0 5 -4 7 -10 4 -5 -3 -10 -2 -10 4 0
5 6 11 12 13 8 3 3 14 -15 30 -25 24 -39 56 -17 43 6 -3 10 -1 10 5 0 6 -11 8
-24 6 -25 -4 -42 15 -37 43 1 7 -2 10 -8 6 -6 -3 -11 -1 -11 5 0 7 6 10 14 7
9 -4 16 3 18 18 3 16 1 22 -8 18 -6 -2 -15 1 -20 8 -4 8 -3 10 4 5 13 -8 14
-1 6 31 -4 13 -11 20 -18 16 -6 -3 -8 -3 -4 2 4 4 2 15 -5 23 -9 13 -9 14 1 8
6 -4 12 -3 12 3 0 5 -6 14 -14 18 -12 7 -12 13 -1 41 15 34 35 41 54 18z
m-581 -161 c8 3 -5 -15 -28 -39 -24 -25 -45 -44 -47 -43 -4 5 17 77 23 77 3 0
2 -10 -2 -22 -6 -20 -5 -21 10 -9 18 15 21 42 6 57 -6 6 -7 19 -3 30 6 16 9
12 17 -19 7 -27 14 -36 24 -32z m52 -39 c0 -2 -7 -7 -16 -10 -8 -3 -12 -2 -9
4 6 10 25 14 25 6z m423 -93 c-7 -2 -19 -2 -25 0 -7 3 -2 5 12 5 14 0 19 -2
13 -5z m157 -54 c0 -5 -7 -9 -15 -9 -9 0 -12 6 -9 15 6 15 24 11 24 -6z m95
-166 c15 -261 17 -594 5 -609 -9 -10 -9 -14 -1 -14 7 0 11 -36 11 -114 l0
-115 -61 -75 c-33 -42 -68 -80 -77 -86 -9 -5 -14 -10 -10 -10 3 0 -6 -13 -20
-28 -15 -16 -83 -89 -152 -163 -69 -74 -140 -149 -158 -168 -18 -18 -58 -63
-90 -100 -31 -36 -59 -68 -62 -71 -3 -3 -50 -54 -105 -115 -54 -60 -131 -143
-170 -184 -38 -41 -78 -82 -87 -93 -27 -27 -34 -22 -30 22 2 22 8 38 12 35 5
-3 8 30 7 74 -1 55 3 84 13 96 13 16 15 16 27 -1 7 -10 13 -13 13 -7 0 6 -7
16 -15 23 -19 16 -19 40 -1 65 14 20 11 45 -6 45 -6 0 -5 -6 2 -15 9 -10 9
-15 1 -15 -6 0 -11 -7 -11 -15 0 -8 -4 -15 -10 -15 -13 0 -13 17 -1 25 6 3 8
18 6 34 -2 15 4 43 13 61 11 23 13 35 5 37 -14 5 -1 67 18 86 72 74 128 135
145 158 20 27 142 162 268 296 32 34 63 60 69 56 6 -3 7 -1 3 6 -7 11 7 27
169 198 34 34 60 63 59 63 -1 0 24 26 55 58 100 102 171 185 171 199 0 19 -16
16 -26 -6 -8 -18 -111 -131 -276 -302 -40 -42 -100 -106 -133 -141 -198 -215
-249 -271 -314 -345 -40 -46 -78 -83 -84 -83 -5 0 -7 -3 -3 -7 9 -9 -104 -123
-122 -123 -10 0 -10 4 3 16 9 9 13 24 10 35 -4 12 -2 19 7 19 10 0 10 2 1 8
-9 5 -10 24 -4 67 5 33 6 62 2 65 -4 3 -8 21 -10 40 -3 31 -1 33 14 20 9 -7
14 -21 12 -30 -2 -9 1 -17 8 -17 8 0 11 9 9 22 -3 15 8 33 36 60 46 45 48 55
19 81 -22 19 -22 19 -8 -3 13 -21 11 -26 -23 -60 -21 -20 -41 -34 -45 -29 -4
4 -2 10 4 14 6 4 10 29 8 56 -1 40 0 46 10 32 7 -9 16 -16 21 -16 4 0 3 5 -4
12 -14 14 -16 32 -3 24 5 -4 7 4 3 16 -5 21 -6 21 -13 2 -9 -23 -9 -22 -13 34
-2 32 1 41 11 38 7 -3 13 -1 13 3 0 5 -4 11 -10 13 -9 3 2 17 90 116 162 181
233 250 248 245 11 -3 13 -2 5 4 -11 8 97 130 278 316 31 31 53 57 50 57 -3 0
8 15 25 33 56 61 110 132 144 189 43 72 46 65 55 -99z m2942 95 c-3 -8 -6 -5
-6 6 -1 11 2 17 5 13 3 -3 4 -12 1 -19z m-3067 -9 c0 -6 -4 -7 -10 -4 -5 3
-10 11 -10 16 0 6 5 7 10 4 6 -3 10 -11 10 -16z m-713 -21 c-3 -7 -5 -2 -5 12
0 14 2 19 5 13 2 -7 2 -19 0 -25z m-27 -134 c0 -8 -5 -12 -10 -9 -6 4 -8 11
-5 16 9 14 15 11 15 -7z m3887 -146 c-3 -8 -6 -5 -6 6 -1 11 2 17 5 13 3 -3 4
-12 1 -19z m-3900 -170 c-3 -8 -6 -5 -6 6 -1 11 2 17 5 13 3 -3 4 -12 1 -19z
m-17 -214 c0 -14 -12 -19 -23 -8 -9 9 4 35 14 28 5 -3 9 -12 9 -20z m903 -406
c-3 -68 -10 -129 -15 -135 -7 -9 -7 -13 0 -13 15 0 16 -506 2 -515 -6 -3 -10
-11 -10 -16 0 -6 5 -7 10 -4 6 4 10 -37 10 -117 0 -112 -2 -126 -23 -152 -34
-43 -149 -175 -204 -233 -27 -29 -48 -53 -45 -53 5 0 -171 -187 -307 -325 -56
-57 -67 -65 -58 -40 4 8 1 17 -5 21 -7 4 -8 3 -4 -4 4 -7 2 -12 -5 -12 -9 0
-8 -4 1 -15 9 -11 9 -17 -2 -28 -27 -29 -107 -115 -223 -242 -66 -71 -123
-131 -127 -133 -4 -2 -8 -7 -8 -11 0 -6 -109 -121 -114 -121 -1 0 2 44 5 97 4
54 7 106 8 116 1 24 16 21 45 -7 14 -15 20 -27 13 -29 -7 -2 8 -3 32 -2 25 1
47 7 49 13 2 7 10 12 18 12 8 0 14 4 14 9 0 5 6 16 14 24 12 11 9 20 -23 55
-20 23 -43 42 -51 42 -13 0 -13 -2 -1 -9 18 -12 6 -41 -16 -40 -17 1 -17 2 0
6 14 4 16 8 6 19 -10 12 -15 9 -35 -18 -13 -17 -24 -28 -25 -22 0 5 -4 0 -9
-11 -6 -14 -9 -15 -9 -5 -1 9 17 36 39 60 42 46 45 52 33 64 -4 4 -22 -10 -39
-31 -18 -21 -36 -34 -40 -30 -5 4 -2 12 6 17 8 5 15 17 16 27 2 45 5 53 19 53
12 0 12 3 -3 20 -17 21 -17 21 -23 -7 -5 -22 -7 -18 -8 20 -1 48 13 63 24 26
6 -16 13 -20 36 -17 17 3 29 0 29 -6 0 -6 5 -3 11 6 5 10 16 18 23 18 17 0 29
27 16 35 -6 4 -10 1 -10 -6 0 -7 -3 -10 -6 -6 -3 3 -3 11 1 17 5 8 11 7 23 -2
13 -11 15 -10 9 5 -6 15 -4 16 14 7 19 -11 17 -14 -28 -61 -33 -34 -49 -45
-55 -36 -4 6 -8 8 -8 2 0 -5 -14 -18 -30 -27 -17 -9 -30 -24 -30 -32 0 -10 10
-6 32 14 24 23 35 27 45 18 8 -6 11 -19 7 -32 -6 -18 -5 -19 9 -8 8 7 13 20
10 30 -2 11 13 33 41 61 36 35 43 48 34 58 -8 10 -8 17 0 25 13 13 32 2 32
-18 0 -8 4 -14 10 -14 5 0 7 6 5 13 -5 12 70 107 85 107 4 0 10 -7 13 -14 4
-9 1 -13 -6 -10 -18 7 -69 -50 -72 -80 -2 -15 0 -24 5 -21 12 7 28 -17 25 -38
-3 -15 -1 -16 11 -6 8 6 14 15 14 20 0 15 -33 48 -42 43 -18 -12 -6 14 17 36
19 18 28 21 37 12 9 -9 7 -16 -6 -31 -19 -21 -14 -41 10 -41 17 0 19 -20 2
-21 -9 0 -9 -2 1 -6 11 -5 11 -7 0 -14 -8 -5 -9 -9 -3 -9 6 0 31 18 55 40 l44
40 -30 28 c-44 42 -56 67 -42 82 9 10 7 11 -11 5 -16 -4 -24 -2 -28 10 -9 23
14 45 26 25 8 -12 17 -7 53 28 24 23 46 39 50 36 10 -10 9 -26 -1 -20 -4 2
-14 0 -22 -6 -13 -8 -12 -9 2 -5 22 7 40 -15 31 -38 -5 -14 -3 -16 8 -10 12 8
12 6 0 -9 -13 -15 -13 -19 -1 -26 8 -5 18 -6 22 -4 4 3 8 0 8 -6 0 -6 5 -8 10
-5 6 4 7 11 4 17 -4 6 -3 8 3 5 6 -4 18 0 28 7 17 12 17 14 -4 35 l-23 23 6
-24 c4 -18 3 -17 -6 5 -7 16 -20 27 -31 27 -12 0 -17 5 -14 14 3 8 -1 17 -10
20 -8 4 -13 12 -10 20 3 7 1 18 -3 22 -5 5 -5 15 0 24 7 12 12 12 22 2 10 -10
21 -4 54 29 23 23 53 46 65 53 13 6 25 21 27 33 2 12 10 24 19 27 12 5 14 1
11 -16 -2 -13 3 -31 12 -41 14 -14 17 -14 17 -2 0 8 -5 15 -10 15 -5 0 -7 11
-5 25 3 13 0 26 -6 29 -6 3 3 17 20 34 24 23 29 33 22 46 -5 10 -7 24 -4 32 3
9 1 12 -4 9 -6 -3 -10 -15 -10 -26 0 -26 -78 -109 -95 -103 -7 3 -16 0 -20 -6
-5 -8 -13 -6 -26 6 -11 9 -22 14 -25 11 -4 -3 6 -17 20 -30 l27 -25 -42 -45
c-25 -28 -46 -44 -55 -40 -16 6 -44 -25 -38 -42 6 -14 -67 -90 -86 -90 -8 0
-18 5 -22 10 -4 6 -8 -1 -8 -14 0 -24 0 -24 -16 -5 -14 17 -15 17 -10 1 4 -12
2 -16 -6 -11 -7 5 -9 2 -5 -9 6 -16 -15 -42 -26 -31 -3 3 -14 1 -24 -5 -12 -7
-14 -10 -4 -11 11 0 10 -5 -4 -20 -10 -11 -15 -23 -11 -27 4 -4 27 15 52 41
25 27 48 46 51 42 4 -4 -13 -26 -37 -51 -36 -36 -49 -43 -76 -42 -22 2 -40 10
-50 25 -8 12 -20 20 -25 16 -6 -4 -6 -11 1 -19 10 -12 7 -12 -14 -2 -24 12
-26 22 -3 22 7 0 13 10 13 23 1 23 1 23 -27 -4 -16 -15 -26 -31 -23 -36 3 -4
1 -8 -5 -8 -5 0 -13 -9 -16 -20 -6 -19 -25 -19 -25 -1 0 5 33 44 74 87 41 44
83 90 94 104 17 21 22 22 36 11 9 -8 16 -9 16 -3 0 6 -6 12 -12 15 -8 2 16 34
58 78 39 41 119 127 178 191 59 65 113 116 119 115 7 -1 11 3 10 10 -3 15 118
148 133 147 6 -1 11 4 10 11 0 7 53 73 119 145 176 195 225 253 225 270 -1 10
-7 7 -21 -10 -12 -14 -42 -47 -67 -75 -26 -27 -46 -53 -44 -57 1 -4 -2 -8 -7
-8 -5 0 -57 -55 -117 -122 -119 -133 -192 -212 -299 -328 -38 -41 -77 -82 -85
-91 -8 -9 -64 -68 -124 -133 l-109 -116 -28 39 c-37 50 -69 60 -70 23 -1 -27
-1 -27 -9 3 -7 29 -8 29 -10 -10 -2 -25 -4 -32 -7 -18 -8 39 -20 25 -20 -22 0
-25 4 -45 8 -45 5 0 9 10 9 22 0 12 3 19 6 15 9 -9 41 27 36 41 -3 8 7 2 22
-13 14 -14 30 -24 35 -21 5 3 11 0 14 -7 3 -7 -34 -53 -81 -103 -67 -68 -87
-85 -90 -71 -2 10 0 31 4 45 4 15 6 45 6 67 0 22 2 32 4 23 3 -10 10 -18 15
-18 13 0 1 42 -15 53 -8 5 -7 10 3 16 7 5 10 14 6 21 -9 15 39 66 71 74 13 4
24 14 24 23 0 15 -2 14 -15 -3 -13 -16 -16 -17 -25 -4 -14 21 -6 35 17 33 22
-2 122 92 110 104 -4 4 -30 -15 -57 -42 -27 -27 -53 -45 -57 -41 -4 4 0 12 10
17 9 6 17 15 17 21 0 7 -6 6 -15 -2 -13 -11 -14 -10 -9 4 3 9 2 16 -3 16 -5 0
-10 -6 -11 -12 -4 -48 -32 -110 -53 -117 -9 -3 -8 1 4 13 9 10 15 22 11 27 -3
6 0 17 8 26 9 12 9 15 1 9 -8 -4 -13 -1 -13 8 0 9 0 19 0 24 0 4 4 7 9 7 19 0
24 15 5 16 -17 0 -16 1 4 9 12 5 22 17 22 27 0 15 -2 15 -16 -3 -14 -18 -15
-16 -10 31 5 35 14 58 34 80 52 56 257 279 267 291 123 138 199 212 213 207
13 -4 14 -3 4 5 -11 7 -9 14 10 33 12 14 40 45 61 69 96 112 150 162 159 148
7 -9 8 -7 4 7 -4 15 14 40 69 99 41 44 75 81 75 83 0 1 24 28 53 59 28 30 55
64 59 75 4 10 9 19 12 19 2 0 2 -55 -1 -122z m3294 -580 c-3 -8 -6 -5 -6 6 -1
11 2 17 5 13 3 -3 4 -12 1 -19z m-7430 -265 c-2 -16 -4 -5 -4 22 0 28 2 40 4
28 2 -13 2 -35 0 -50z m4123 -357 c-5 -5 -10 -17 -10 -26 0 -13 2 -13 10 0 8
10 10 -24 8 -115 l-3 -130 -44 -60 c-57 -78 -102 -126 -113 -119 -4 3 -8 -1
-8 -9 0 -16 -220 -251 -227 -243 -3 3 9 22 26 43 32 38 38 58 22 67 -15 10
-41 -5 -41 -22 0 -12 3 -13 12 -4 20 20 27 14 15 -13 -10 -20 -17 -24 -37 -20
-23 5 -23 4 -8 -8 10 -8 14 -17 10 -21 -4 -4 -7 -17 -7 -29 0 -11 -6 -22 -14
-25 -8 -3 -11 0 -7 7 4 6 2 11 -4 11 -6 0 -9 4 -5 9 6 10 -32 41 -49 41 -6 0
0 -7 12 -16 12 -8 20 -20 16 -25 -3 -6 -14 0 -25 12 -10 12 -16 26 -13 31 3 5
0 16 -7 24 -9 11 -9 18 -1 26 7 7 12 19 12 28 0 9 20 35 44 59 39 39 45 41 57
26 8 -9 23 -26 34 -38 11 -12 16 -19 11 -15 -5 4 -15 3 -22 -3 -9 -7 -18 -4
-32 12 -11 11 -25 18 -32 14 -17 -11 36 -48 59 -40 13 4 23 0 30 -12 6 -10 11
-12 11 -5 0 6 5 12 12 12 9 0 9 -3 0 -12 -21 -21 -13 -32 8 -13 21 19 20 19
-25 65 -46 46 -57 67 -31 57 10 -4 13 -1 9 9 -4 11 -8 12 -20 3 -22 -19 -42 5
-25 31 11 18 10 20 -10 17 -22 -4 -68 35 -68 57 0 5 -7 3 -16 -6 -13 -13 -14
-20 -4 -38 7 -12 7 -20 2 -16 -6 3 -12 1 -14 -4 -2 -7 -11 -5 -23 4 -11 8 -16
18 -12 22 4 5 12 2 17 -6 5 -8 12 -11 17 -7 4 5 1 12 -7 18 -13 8 -13 11 3 20
9 5 17 17 17 25 0 8 -14 -2 -32 -23 -18 -21 -41 -45 -52 -54 -18 -15 -18 -16
7 -36 15 -11 23 -23 20 -27 -3 -3 -1 -6 6 -6 7 0 9 -4 6 -10 -3 -5 -1 -10 4
-10 17 0 13 18 -9 40 -25 25 -25 31 -2 23 15 -6 15 -5 3 10 -20 25 -8 31 14 7
10 -11 13 -20 7 -20 -5 0 -8 -9 -5 -20 4 -15 9 -18 18 -10 7 6 10 20 7 32 -3
14 -1 19 8 16 22 -7 20 -40 -3 -59 -12 -10 -16 -18 -9 -19 6 0 12 5 12 11 0 5
4 8 9 4 5 -3 12 3 16 14 5 16 43 36 52 27 9 -8 -80 -86 -97 -86 -11 0 -20 -4
-20 -9 0 -5 -7 -12 -16 -15 -14 -5 -15 -4 -4 9 11 14 7 19 -12 16 -11 -1 -10
13 2 27 7 9 7 9 -2 2 -18 -15 -31 -12 -24 5 3 8 -1 20 -8 27 -7 7 -11 20 -9
28 2 8 -3 2 -12 -13 -16 -28 -16 -29 18 -60 19 -18 33 -40 32 -49 -2 -11 2
-15 11 -11 26 10 14 -13 -31 -57 -31 -31 -42 -47 -35 -56 6 -6 8 -20 4 -30 -3
-11 -2 -15 3 -8 4 6 16 13 26 17 9 3 17 12 16 19 0 10 -2 10 -6 1 -5 -15 -26
-18 -21 -4 2 5 23 30 46 56 32 33 41 49 33 58 -12 15 2 42 18 33 18 -11 13
-32 -14 -64 -25 -30 -33 -48 -16 -38 5 4 7 -3 4 -14 -3 -11 -9 -17 -14 -14 -5
3 -6 10 -3 16 4 6 1 9 -6 6 -21 -7 -22 -24 -3 -44 17 -17 17 -18 -1 -11 -13 5
-17 3 -13 -7 4 -11 -5 -16 -34 -21 -21 -4 -42 -12 -46 -18 -4 -6 0 -8 10 -4
10 3 17 2 17 -3 0 -6 -5 -10 -11 -10 -5 0 -8 -4 -5 -9 10 -16 -18 -68 -34 -64
-12 4 -13 3 -1 -5 7 -5 11 -14 7 -20 -8 -13 36 -24 48 -12 6 6 14 10 20 10 5
0 -5 -16 -24 -35 -19 -19 -29 -35 -24 -35 6 0 21 12 34 28 12 15 37 42 54 60
29 31 29 33 10 38 -11 3 -25 14 -31 24 -10 15 -9 17 9 12 16 -4 19 -2 13 9 -7
12 -6 12 7 1 12 -9 18 -10 23 -2 4 6 13 9 21 6 8 -3 14 -1 14 4 0 6 -10 10
-22 10 l-23 1 21 17 c11 10 23 24 25 31 4 11 9 10 22 -3 17 -18 14 -42 -4 -31
-5 4 -9 -1 -9 -11 0 -14 3 -14 15 -4 9 7 19 10 23 6 4 -4 -2 -15 -13 -25 -11
-9 -57 -58 -103 -108 -56 -61 -88 -90 -98 -86 -8 3 -21 -2 -28 -12 -7 -10 -18
-15 -24 -11 -6 3 -22 2 -36 -4 -35 -13 -36 12 0 28 15 7 22 17 18 24 -5 8 -11
6 -19 -5 -14 -20 -31 -22 -38 -4 -3 6 -3 -2 0 -20 5 -29 3 -32 -23 -36 -16 -2
2 -5 39 -6 55 -1 72 3 89 19 27 25 37 17 13 -10 -16 -18 -31 -20 -129 -20
-109 0 -110 1 -78 17 18 8 30 18 28 21 -3 3 -12 -1 -20 -7 -17 -14 -36 -7 -36
14 0 19 21 30 30 15 5 -8 23 4 56 40 27 29 50 55 52 59 1 4 -8 19 -22 34 -13
14 -21 29 -17 34 3 4 -2 1 -13 -7 -10 -8 -14 -16 -7 -18 6 -2 11 -10 11 -18 0
-9 5 -12 11 -8 18 11 7 -11 -30 -55 -18 -22 -42 -41 -52 -41 -10 0 -24 -10
-30 -22 -7 -13 -11 -23 -10 -23 1 0 -1 -8 -4 -18 -6 -14 -21 -17 -101 -17 -89
0 -94 1 -94 21 0 12 26 49 64 88 35 36 83 89 106 116 52 60 137 146 125 126
-5 -10 -4 -12 4 -7 6 4 9 11 6 16 -3 4 28 45 69 91 87 99 256 267 256 255 0
-4 16 2 36 13 l35 21 -6 -22 c-7 -23 -7 -23 8 -3 11 14 12 22 4 27 -16 10 -3
20 16 12 13 -4 14 -10 7 -24 -17 -32 -11 -36 15 -8 28 31 31 40 11 32 -7 -3
-20 2 -28 10 -14 13 -19 12 -44 -15 -15 -16 -34 -29 -42 -29 -10 0 -5 10 14
28 16 16 85 91 154 167 193 214 258 283 264 279 3 -2 4 -1 1 2 -2 4 4 19 14
33 10 14 22 35 27 46 6 14 10 -19 12 -104 2 -76 -1 -128 -8 -135z m-478 -48
c-16 -16 -37 4 -28 28 6 16 8 16 23 1 13 -13 15 -19 5 -29z m483 -375 c-4 -71
-11 -132 -16 -138 -13 -13 -11 -25 4 -20 9 4 11 -22 7 -118 -5 -122 -6 -125
-41 -178 -20 -30 -57 -78 -84 -107 l-47 -52 -112 0 c-76 0 -116 4 -124 12 -10
10 -14 10 -21 0 -6 -9 -36 -12 -115 -10 l-107 3 87 95 c48 52 139 149 203 215
221 230 351 381 351 410 0 8 5 15 11 15 7 0 8 -39 4 -127z m-696 22 c7 3 8 0
5 -9 -3 -8 -12 -17 -19 -20 -9 -3 -12 0 -9 8 3 8 1 17 -5 21 -6 3 -11 12 -11
18 0 7 7 4 15 -7 7 -10 18 -15 24 -11z m-319 -5 c0 -5 -4 -10 -10 -10 -5 0
-10 5 -10 10 0 6 5 10 10 10 6 0 10 -4 10 -10z m70 6 c0 -2 -8 -10 -17 -17
-16 -13 -17 -12 -4 4 13 16 21 21 21 13z m500 -36 c0 -11 -4 -20 -10 -20 -5 0
-10 9 -10 20 0 11 5 20 10 20 6 0 10 -9 10 -20z m-63 -222 c-3 -8 -6 -5 -6 6
-1 11 2 17 5 13 3 -3 4 -12 1 -19z m-587 -39 c0 -5 -4 -9 -10 -9 -5 0 -10 7
-10 16 0 8 5 12 10 9 6 -3 10 -10 10 -16z m160 1 c0 -5 -5 -10 -11 -10 -5 0
-7 5 -4 10 3 6 8 10 11 10 2 0 4 -4 4 -10z m-10 -30 c0 -5 -4 -10 -10 -10 -5
0 -10 5 -10 10 0 6 5 10 10 10 6 0 10 -4 10 -10z m515 -28 c-8 -9 -25 20 -18
31 3 5 10 2 15 -7 6 -10 7 -20 3 -24z m3972 -14 c-3 -8 -6 -5 -6 6 -1 11 2 17
5 13 3 -3 4 -12 1 -19z m-4117 2 c0 -5 -2 -10 -4 -10 -3 0 -8 5 -11 10 -3 6
-1 10 4 10 6 0 11 -4 11 -10z m-5 -67 c9 -12 10 -23 3 -36 -9 -18 -10 -17 -27
2 -16 19 -20 19 -31 6 -11 -13 -10 -14 5 -9 13 5 16 3 13 -7 -5 -16 -30 -19
-35 -3 -2 6 5 20 14 31 16 18 20 19 32 6 17 -19 28 -8 11 12 -7 8 -9 15 -5 15
4 0 14 -8 20 -17z m567 -110 l-4 -93 -65 0 -65 0 29 34 c31 38 39 42 46 23 2
-6 3 -3 1 8 -2 10 8 34 21 51 14 18 25 39 25 47 0 13 11 30 15 25 1 -2 0 -45
-3 -95z m3595 -65 c-3 -8 -6 -5 -6 6 -1 11 2 17 5 13 3 -3 4 -12 1 -19z"/>
<path d="M4420 8820 c0 -5 5 -10 11 -10 5 0 7 5 4 10 -3 6 -8 10 -11 10 -2 0
-4 -4 -4 -10z"/>
<path d="M5056 8455 c4 -8 8 -15 10 -15 2 0 4 7 4 15 0 8 -4 15 -10 15 -5 0
-7 -7 -4 -15z"/>
<path d="M5180 8455 c0 -8 2 -15 4 -15 2 0 6 7 10 15 3 8 1 15 -4 15 -6 0 -10
-7 -10 -15z"/>
<path d="M5520 8400 c-8 -5 -10 -10 -5 -10 6 0 17 5 25 10 8 5 11 10 5 10 -5
0 -17 -5 -25 -10z"/>
<path d="M6261 7818 c-1 -23 9 -48 21 -48 7 0 7 4 0 13 -5 6 -12 21 -15 32 -3
15 -5 16 -6 3z"/>
<path d="M4165 7710 c-3 -5 -3 -10 2 -11 4 0 -1 -5 -12 -10 -19 -8 -19 -9 -1
-6 11 1 20 10 22 20 3 19 -2 22 -11 7z"/>
<path d="M4161 7608 c-1 -10 -6 -18 -12 -18 -7 0 -9 -10 -5 -26 6 -23 5 -25
-16 -19 -26 9 -23 3 9 -14 19 -10 21 -9 18 17 -2 15 1 32 7 39 5 7 8 18 5 25
-4 8 -6 7 -6 -4z"/>
<path d="M4088 7603 c-12 -3 -16 -14 -15 -43 2 -46 10 -55 34 -41 10 6 13 11
6 11 -7 0 -17 10 -24 22 -10 18 -9 20 4 15 12 -4 14 -2 10 10 -4 11 -2 14 5 9
7 -4 12 -3 12 3 0 13 -11 18 -32 14z"/>
<path d="M4375 7600 c-3 -5 -1 -10 4 -10 6 0 11 5 11 10 0 6 -2 10 -4 10 -3 0
-8 -4 -11 -10z"/>
<path d="M4177 7582 c-8 -7 -12 -24 -9 -38 5 -28 42 -33 62 -8 8 8 9 14 4 13
-21 -4 -26 2 -13 18 10 11 10 14 2 9 -7 -4 -13 -3 -13 3 0 5 6 11 13 14 6 3 2
4 -10 4 -13 -1 -29 -7 -36 -15z m27 -14 c1 -7 5 -19 9 -25 5 -8 4 -13 -2 -13
-6 0 -11 5 -11 11 0 5 -5 7 -12 3 -8 -5 -9 -2 -5 10 4 10 7 23 7 28 0 15 11 4
14 -14z"/>
<path d="M4725 7550 l-30 -8 37 -1 c20 0 40 4 43 9 7 11 -6 11 -50 0z"/>
<path d="M4490 7042 c0 -14 6 -22 16 -22 14 0 15 3 3 18 -7 9 -15 19 -16 21
-2 2 -3 -5 -3 -17z"/>
<path d="M5398 4393 c7 -3 16 -2 19 1 4 3 -2 6 -13 5 -11 0 -14 -3 -6 -6z"/>
<path d="M5270 4340 c0 -5 7 -7 15 -4 8 4 15 8 15 10 0 2 -7 4 -15 4 -8 0 -15
-4 -15 -10z"/>
<path d="M5368 4213 c7 -3 16 -2 19 1 4 3 -2 6 -13 5 -11 0 -14 -3 -6 -6z"/>
<path d="M5235 4231 c9 -16 -15 -24 -30 -11 -12 10 -15 10 -15 -2 0 -18 27
-20 57 -6 24 12 22 28 -3 28 -8 0 -13 -4 -9 -9z"/>
<path d="M5318 4140 c-3 -16 -1 -30 4 -30 4 0 8 14 8 30 0 17 -2 30 -4 30 -2
0 -6 -13 -8 -30z"/>
<path d="M5068 4103 c7 -3 16 -2 19 1 4 3 -2 6 -13 5 -11 0 -14 -3 -6 -6z"/>
<path d="M5000 4036 c0 -31 6 -34 13 -6 3 11 1 23 -4 26 -5 3 -9 -6 -9 -20z"/>
<path d="M4956 4025 c10 -46 25 -66 18 -25 -4 19 -11 40 -16 45 -6 6 -7 -1 -2
-20z"/>
<path d="M4981 4024 c0 -11 3 -14 6 -6 3 7 2 16 -1 19 -3 4 -6 -2 -5 -13z"/>
<path d="M5098 3903 c7 -3 16 -2 19 1 4 3 -2 6 -13 5 -11 0 -14 -3 -6 -6z"/>
<path d="M5220 3856 c0 -2 7 -7 16 -10 8 -3 12 -2 9 4 -6 10 -25 14 -25 6z"/>
<path d="M5077 3780 c-3 -11 -1 -20 4 -20 5 0 9 9 9 20 0 11 -2 20 -4 20 -2 0
-6 -9 -9 -20z"/>
<path d="M5051 3705 c-18 -25 -31 -51 -28 -58 2 -6 11 2 19 18 9 17 25 39 37
49 22 20 27 36 13 36 -5 0 -23 -20 -41 -45z"/>
<path d="M4970 3652 c0 -6 -9 -13 -19 -17 -13 -4 -18 -12 -14 -22 4 -11 2 -14
-5 -9 -7 4 -12 2 -12 -3 0 -15 13 -14 36 5 10 8 13 13 7 9 -19 -9 -16 6 4 21
10 7 15 16 10 20 -4 4 -7 2 -7 -4z"/>
<path d="M4875 3608 c4 -13 13 -29 20 -36 10 -11 10 -7 1 22 -6 20 -15 36 -19
36 -5 0 -5 -10 -2 -22z"/>
<path d="M4950 3581 c-63 -55 -46 -59 19 -5 29 24 47 44 39 44 -7 0 -33 -18
-58 -39z"/>
<path d="M4844 3480 c-23 -21 -40 -41 -37 -44 8 -7 72 43 84 66 15 29 -3 21
-47 -22z"/>
<path d="M4740 3446 c0 -2 7 -7 16 -10 8 -3 12 -2 9 4 -6 10 -25 14 -25 6z"/>
<path d="M4730 3420 c0 -5 5 -10 11 -10 5 0 7 5 4 10 -3 6 -8 10 -11 10 -2 0
-4 -4 -4 -10z"/>
<path d="M4729 3375 c-35 -33 -44 -47 -37 -59 5 -9 6 -21 3 -26 -3 -6 1 -10 9
-10 10 0 13 6 10 15 -4 8 -1 15 5 15 6 0 11 -8 11 -19 0 -10 6 -24 14 -31 8
-6 12 -19 9 -28 -5 -14 -3 -15 7 -5 19 17 21 55 3 49 -19 -8 -29 23 -14 45 6
11 7 19 2 19 -5 0 -11 -5 -13 -11 -2 -7 -10 -10 -17 -8 -8 3 3 20 29 46 56 55
37 63 -21 8z"/>
<path d="M4680 3250 c0 -5 5 -10 10 -10 6 0 10 5 10 10 0 6 -4 10 -10 10 -5 0
-10 -4 -10 -10z"/>
<path d="M4770 3215 c-11 -13 -10 -14 4 -9 9 3 16 10 16 15 0 13 -6 11 -20 -6z"/>
<path d="M4725 3190 c10 -11 20 -18 23 -15 7 6 -18 35 -31 35 -5 0 -2 -9 8
-20z"/>
<path d="M4620 3140 c-9 -6 -10 -10 -3 -10 6 0 15 5 18 10 8 12 4 12 -15 0z"/>
<path d="M5360 3639 c0 -9 -13 -34 -29 -56 -25 -34 -27 -42 -15 -57 12 -18 13
-18 12 0 -1 11 11 39 26 63 20 31 25 46 17 54 -8 8 -11 7 -11 -4z"/>
<path d="M5156 3334 c-21 -24 -36 -49 -34 -55 2 -6 23 12 46 40 23 27 38 52
34 55 -5 3 -25 -15 -46 -40z"/>
<path d="M5225 3370 c-3 -5 -1 -10 4 -10 6 0 11 5 11 10 0 6 -2 10 -4 10 -3 0
-8 -4 -11 -10z"/>
<path d="M5220 3345 c0 -6 14 -23 30 -39 22 -21 28 -35 24 -50 -6 -19 -6 -19
11 -2 17 17 16 19 -23 59 -23 23 -42 37 -42 32z"/>
<path d="M5046 3214 c-21 -24 -36 -48 -32 -52 8 -7 86 75 86 90 0 16 -16 5
-54 -38z"/>
<path d="M4935 3095 c-24 -26 -40 -53 -40 -68 -1 -14 3 -23 7 -21 4 3 8 14 8
24 0 10 4 20 8 22 5 2 25 22 46 46 50 55 23 52 -29 -3z"/>
<path d="M4801 3088 c10 -18 9 -20 -5 -15 -10 4 -15 3 -12 -2 3 -5 18 -8 33
-8 24 0 25 1 10 12 -9 6 -14 14 -11 17 2 3 -2 8 -11 12 -13 5 -14 2 -4 -16z"/>
<path d="M4798 3043 c7 -3 16 -2 19 1 4 3 -2 6 -13 5 -11 0 -14 -3 -6 -6z"/>
<path d="M4843 3035 c0 -8 4 -12 9 -9 21 13 4 -14 -33 -52 -23 -23 -38 -47
-35 -52 4 -6 26 10 51 37 33 36 43 53 38 69 -6 24 -30 30 -30 7z"/>
<path d="M4815 3020 c3 -5 8 -10 11 -10 2 0 4 5 4 10 0 6 -5 10 -11 10 -5 0
-7 -4 -4 -10z"/>
<path d="M4890 2975 c7 -9 15 -13 17 -11 7 7 -7 26 -19 26 -6 0 -6 -6 2 -15z"/>
<path d="M4823 2914 c-3 -9 2 -23 13 -32 17 -16 17 -16 5 0 -7 10 -11 25 -7
33 3 8 3 15 0 15 -2 0 -7 -7 -11 -16z"/>
<path d="M4700 2849 c-23 -27 -39 -53 -36 -57 7 -6 95 87 96 101 1 18 -20 3
-60 -44z"/>
<path d="M4776 2859 c6 -8 10 -24 9 -36 -1 -18 1 -20 12 -12 19 16 16 32 -9
48 -20 12 -21 12 -12 0z"/>
<path d="M4890 2835 c-11 -13 -10 -14 4 -9 9 3 16 10 16 15 0 13 -6 11 -20 -6z"/>
<path d="M4820 2802 c0 -12 19 -26 26 -19 2 2 -2 10 -11 17 -9 8 -15 8 -15 2z"/>
<path d="M4575 2630 c-8 -13 9 -20 24 -11 10 6 9 10 -3 14 -8 3 -18 2 -21 -3z"/>
<path d="M5357 3266 c-7 -17 17 -40 34 -34 8 3 7 9 -4 20 -9 8 -13 18 -10 22
4 3 2 6 -4 6 -6 0 -13 -6 -16 -14z"/>
<path d="M5330 3226 c0 -8 -6 -17 -12 -19 -10 -4 -10 -6 0 -6 7 -1 10 -5 7
-11 -3 -5 -1 -10 5 -10 7 0 9 7 6 17 -4 10 -3 14 1 9 4 -4 8 -18 8 -29 0 -17
5 -21 23 -19 16 2 22 -2 22 -15 0 -15 -2 -16 -10 -3 -8 12 -11 13 -19 1 -6 -9
-10 -10 -14 -2 -4 8 -5 7 -3 -1 1 -7 13 -15 27 -18 22 -5 22 -7 5 -13 -10 -4
-16 -10 -13 -14 10 -10 37 18 37 39 0 21 -28 69 -47 81 -8 5 -11 12 -8 18 4 5
1 9 -4 9 -6 0 -11 -6 -11 -14z"/>
<path d="M5388 3081 c-39 -50 -44 -61 -30 -61 8 0 82 93 82 104 0 16 -18 1
-52 -43z"/>
<path d="M5278 2950 c-26 -28 -42 -53 -36 -56 5 -3 10 -4 11 -2 1 2 22 24 45
50 24 25 40 48 34 51 -5 4 -29 -16 -54 -43z"/>
<path d="M5195 2882 c5 -9 -8 -29 -36 -58 -23 -24 -40 -47 -36 -51 4 -4 29 14
55 40 45 45 46 47 28 64 -10 10 -15 12 -11 5z"/>
<path d="M5061 2788 c0 -9 6 -21 14 -25 13 -7 7 -18 -29 -58 -58 -65 -49 -78
12 -17 33 33 45 52 40 63 -4 9 -2 21 4 27 9 9 9 12 0 12 -7 0 -12 -4 -12 -10
0 -17 -18 -11 -23 8 -4 15 -5 15 -6 0z"/>
<path d="M4890 2690 c-6 -11 -8 -20 -6 -20 3 0 10 9 16 20 6 11 8 20 6 20 -3
0 -10 -9 -16 -20z"/>
<path d="M4910 2682 c0 -5 11 -15 25 -22 35 -19 31 -38 -16 -86 -25 -25 -38
-47 -34 -54 5 -8 24 6 55 41 36 40 46 57 38 66 -7 9 -7 17 2 28 8 9 8 15 2 15
-6 0 -12 -5 -14 -11 -2 -6 -15 -1 -31 11 -15 12 -27 17 -27 12z"/>
<path d="M4905 2644 c9 -9 19 -13 23 -10 3 4 0 11 -8 16 -24 15 -33 11 -15 -6z"/>
<path d="M5383 2553 c-23 -25 -40 -50 -37 -54 5 -9 93 79 94 94 0 16 -17 4
-57 -40z"/>
<path d="M4845 2509 c4 -10 -10 -32 -38 -63 -25 -26 -40 -49 -34 -53 6 -3 19
5 29 18 11 13 31 37 45 53 23 26 24 29 9 45 -15 14 -16 14 -11 0z"/>
<path d="M5310 2505 c0 -8 2 -15 4 -15 2 0 6 7 10 15 3 8 1 15 -4 15 -6 0 -10
-7 -10 -15z"/>
<path d="M5267 2431 c-26 -28 -43 -53 -37 -56 8 -5 90 75 98 96 9 22 -17 5
-61 -40z"/>
<path d="M4906 2437 c3 -10 9 -15 12 -12 3 3 0 11 -7 18 -10 9 -11 8 -5 -6z"/>
<path d="M5106 2411 c-4 -6 -2 -11 4 -11 7 0 9 -9 5 -22 -5 -20 -4 -21 5 -5 7
11 8 23 2 33 -6 11 -11 13 -16 5z"/>
<path d="M4730 2375 c0 -6 -20 -31 -44 -58 -24 -26 -40 -50 -34 -53 5 -3 11
-4 12 -3 1 2 22 26 46 52 33 36 40 51 32 59 -7 7 -12 8 -12 3z"/>
<path d="M5180 2370 c-10 -6 -11 -10 -2 -10 20 0 14 -13 -33 -62 -59 -64 -40
-71 22 -8 40 40 47 52 37 61 -8 6 -11 15 -8 20 7 11 3 11 -16 -1z"/>
<path d="M4980 2326 c0 -2 7 -6 15 -10 8 -3 15 -1 15 4 0 6 -7 10 -15 10 -8 0
-15 -2 -15 -4z"/>
<path d="M4702 2250 c-6 -11 -12 -23 -12 -27 0 -5 5 0 11 10 6 9 14 15 20 12
5 -3 6 1 3 9 -8 20 -7 20 -22 -4z"/>
<path d="M5075 2253 c-5 -10 -9 -23 -9 -29 -1 -16 -64 -84 -77 -84 -8 0 -7 -5
2 -16 11 -14 18 -10 54 30 39 44 73 66 44 29 -12 -16 -12 -17 2 -6 9 7 20 9
24 5 5 -4 -1 6 -13 22 -13 17 -20 37 -17 48 8 23 0 24 -10 1z"/>
<path d="M4748 2253 c6 -2 18 -2 25 0 6 3 1 5 -13 5 -14 0 -19 -2 -12 -5z"/>
<path d="M4795 2240 c4 -7 -2 -9 -19 -4 -22 5 -26 3 -26 -15 0 -21 1 -21 30
-6 29 15 40 35 19 35 -5 0 -7 -5 -4 -10z"/>
<path d="M5115 2220 c-3 -5 -1 -10 4 -10 6 0 11 5 11 10 0 6 -2 10 -4 10 -3 0
-8 -4 -11 -10z"/>
<path d="M4726 2195 c4 -8 8 -15 10 -15 2 0 4 7 4 15 0 8 -4 15 -10 15 -5 0
-7 -7 -4 -15z"/>
<path d="M4855 2189 c-4 -6 -5 -12 -2 -15 2 -3 7 2 10 11 7 17 1 20 -8 4z"/>
<path d="M4667 2169 c7 -9 11 -18 9 -20 -3 -2 6 -9 20 -16 33 -16 29 -3 -9 27
-18 13 -26 18 -20 9z"/>
<path d="M4705 2170 c3 -5 8 -10 11 -10 2 0 4 5 4 10 0 6 -5 10 -11 10 -5 0
-7 -4 -4 -10z"/>
<path d="M4958 2123 c0 -5 -2 -13 -2 -18 -1 -6 -19 -31 -40 -57 -27 -32 -44
-44 -57 -41 -11 3 -19 0 -19 -7 0 -7 -8 -9 -22 -5 -20 5 -21 5 -5 -5 14 -9 22
-8 34 1 13 11 17 10 29 -6 8 -10 14 -15 14 -9 0 5 20 33 45 61 28 32 41 54 34
58 -5 4 -8 13 -5 21 3 8 3 14 1 14 -3 0 -6 -3 -7 -7z"/>
<path d="M5178 2103 c7 -3 16 -2 19 1 4 3 -2 6 -13 5 -11 0 -14 -3 -6 -6z"/>
<path d="M4886 2054 c-4 -9 -4 -19 -1 -22 2 -3 7 3 11 12 4 9 4 19 1 22 -2 3
-7 -3 -11 -12z"/>
<path d="M4536 2045 c4 -8 8 -15 10 -15 2 0 4 7 4 15 0 8 -4 15 -10 15 -5 0
-7 -7 -4 -15z"/>
<path d="M4780 2029 c0 -5 5 -7 10 -4 6 3 10 8 10 11 0 2 -4 4 -10 4 -5 0 -10
-5 -10 -11z"/>
<path d="M5025 2000 c3 -5 11 -10 16 -10 6 0 7 5 4 10 -3 6 -11 10 -16 10 -6
0 -7 -4 -4 -10z"/>
<path d="M4920 1990 c0 -5 5 -10 10 -10 6 0 10 5 10 10 0 6 -4 10 -10 10 -5 0
-10 -4 -10 -10z"/>
<path d="M4965 1979 c-4 -6 -5 -12 -2 -15 2 -3 7 2 10 11 7 17 1 20 -8 4z"/>
<path d="M4793 1917 c-56 -70 -43 -82 18 -15 45 50 49 52 55 31 3 -13 11 -23
16 -23 5 0 6 6 2 13 -11 20 -37 47 -43 46 -3 0 -25 -23 -48 -52z"/>
<path d="M4872 1881 c-11 -6 -10 -10 5 -15 17 -7 17 -8 -1 -22 -11 -8 -15 -14
-9 -14 17 0 31 24 24 42 -4 11 -11 14 -19 9z"/>
<path d="M4720 1864 c0 -8 5 -12 10 -9 6 4 8 11 5 16 -9 14 -15 11 -15 -7z"/>
<path d="M4920 1868 c0 -8 -7 -21 -15 -28 -9 -7 -14 -19 -11 -26 3 -7 1 -15
-5 -18 -5 -2 -4 -3 3 -2 7 1 14 12 16 24 2 12 8 22 13 22 6 0 7 -4 4 -10 -3
-6 1 -7 9 -4 19 7 20 14 1 38 -12 16 -15 17 -15 4z"/>
<path d="M4560 1860 c-12 -7 -12 -11 -2 -20 6 -5 10 -7 7 -4 -3 4 0 13 6 21
13 15 10 16 -11 3z"/>
<path d="M4677 1784 c-27 -29 -44 -55 -39 -58 8 -5 38 24 85 81 10 11 15 23
10 25 -4 2 -30 -19 -56 -48z"/>
<path d="M4510 1800 c0 -5 7 -10 16 -10 8 0 12 5 9 10 -3 6 -10 10 -16 10 -5
0 -9 -4 -9 -10z"/>
<path d="M4557 1654 c-41 -44 -46 -54 -38 -75 8 -21 10 -21 10 -4 1 10 22 41
48 67 28 28 43 51 38 56 -6 5 -30 -14 -58 -44z"/>
<path d="M4520 1671 c0 -6 4 -13 10 -16 6 -3 7 1 4 9 -7 18 -14 21 -14 7z"/>
<path d="M4575 1620 c-3 -5 -1 -10 4 -10 6 0 11 5 11 10 0 6 -2 10 -4 10 -3 0
-8 -4 -11 -10z"/>
<path d="M4670 1612 c0 -5 7 -15 15 -22 8 -7 15 -9 15 -6 0 4 -7 14 -15 22 -8
9 -15 11 -15 6z"/>
<path d="M4551 1474 c0 -11 3 -14 6 -6 3 7 2 16 -1 19 -3 4 -6 -2 -5 -13z"/>
<path d="M4486 1397 c3 -10 9 -15 12 -12 3 3 0 11 -7 18 -10 9 -11 8 -5 -6z"/>
<path d="M4484 1354 c-18 -14 -18 -15 4 -4 12 6 22 13 22 15 0 8 -5 6 -26 -11z"/>
<path d="M5385 2035 c-48 -53 -99 -69 -110 -35 -4 13 -12 19 -21 16 -8 -3 -14
1 -14 9 0 8 -5 15 -11 15 -5 0 -7 -5 -4 -10 4 -6 2 -17 -4 -24 -9 -10 -8 -15
3 -19 11 -4 13 -1 9 10 -5 13 -3 14 16 4 12 -7 25 -20 28 -29 4 -9 10 -19 15
-22 4 -3 -13 -28 -37 -55 -50 -54 -51 -55 -32 -55 8 0 28 18 46 40 32 41 58
54 47 24 -5 -14 -4 -15 8 -5 16 13 15 15 -21 55 -10 11 -9 15 4 21 10 3 22 0
28 -8 8 -11 19 -3 53 39 54 66 52 90 -3 29z"/>
<path d="M5103 1916 c17 -17 24 -42 9 -32 -4 2 -14 0 -22 -6 -12 -8 -12 -9 2
-4 10 3 18 -1 21 -12 4 -15 5 -14 6 2 1 16 3 17 18 5 13 -11 12 -6 -4 21 -12
19 -28 37 -35 39 -7 2 -5 -4 5 -13z"/>
<path d="M5202 1894 c10 -10 20 -16 22 -13 3 3 -5 11 -17 18 -21 13 -21 12 -5
-5z"/>
<path d="M5290 1870 c0 -5 5 -10 11 -10 5 0 7 5 4 10 -3 6 -8 10 -11 10 -2 0
-4 -4 -4 -10z"/>
<path d="M5139 1769 c-25 -27 -42 -53 -39 -59 7 -11 100 81 100 99 0 20 -14
10 -61 -40z"/>
<path d="M4935 1750 c-3 -5 -1 -10 4 -10 6 0 11 5 11 10 0 6 -2 10 -4 10 -3 0
-8 -4 -11 -10z"/>
<path d="M5237 1745 c13 -23 53 -62 53 -51 0 4 -14 22 -32 39 -19 19 -27 24
-21 12z"/>
<path d="M4955 1720 c3 -5 8 -10 11 -10 2 0 4 5 4 10 0 6 -5 10 -11 10 -5 0
-7 -4 -4 -10z"/>
<path d="M5070 1720 c0 -5 -7 -10 -15 -10 -8 0 -15 -5 -15 -11 0 -5 5 -7 10
-4 25 16 6 -24 -31 -63 -36 -38 -40 -45 -31 -70 l10 -27 1 25 c1 28 72 106 85
93 4 -4 3 5 -3 20 -6 15 -8 34 -5 42 4 8 3 15 0 15 -3 0 -6 -4 -6 -10z"/>
<path d="M4956 1687 c3 -10 9 -15 12 -12 3 3 0 11 -7 18 -10 9 -11 8 -5 -6z"/>
<path d="M5005 1660 c-3 -6 1 -7 9 -4 18 7 21 14 7 14 -6 0 -13 -4 -16 -10z"/>
<path d="M5095 1640 c-3 -5 -2 -10 4 -10 5 0 13 5 16 10 3 6 2 10 -4 10 -5 0
-13 -4 -16 -10z"/>
<path d="M4920 1597 c0 -5 5 -17 11 -28 9 -17 4 -27 -30 -64 -36 -40 -51 -65
-36 -65 14 0 90 96 90 114 0 12 4 28 9 36 9 13 8 13 -8 1 -15 -13 -19 -13 -27
0 -5 8 -9 10 -9 6z"/>
<path d="M5151 1573 c7 -12 15 -20 18 -17 3 2 -3 12 -13 22 -17 16 -18 16 -5
-5z"/>
<path d="M5410 1533 c-1 -16 -80 -94 -89 -89 -5 4 -12 2 -16 -4 -4 -6 -10 -8
-15 -5 -4 3 -6 -3 -3 -13 5 -22 -66 -113 -84 -107 -6 2 -17 -3 -23 -11 -15
-17 -30 -18 -26 -1 1 6 1 9 -1 5 -3 -5 -14 -8 -26 -9 -16 -1 -13 -3 11 -10 17
-5 32 -14 32 -20 0 -6 -5 -7 -12 -3 -7 5 -8 3 -3 -6 4 -7 4 -15 -1 -19 -5 -3
-22 -20 -37 -37 -23 -25 -26 -35 -18 -55 9 -21 10 -22 11 -4 1 22 68 102 82
97 5 -1 4 7 -2 19 -16 29 -5 56 15 39 12 -10 22 -4 57 35 25 28 43 58 43 71 0
31 17 33 32 3 l13 -24 0 23 c0 15 4 21 12 16 7 -5 8 -3 3 5 -4 8 3 23 17 39
43 48 50 60 38 67 -5 3 -10 3 -10 -2z"/>
<path d="M4966 1522 c-3 -5 1 -9 9 -9 8 0 12 4 9 9 -3 4 -7 8 -9 8 -2 0 -6 -4
-9 -8z"/>
<path d="M5075 1509 c-4 -6 -5 -12 -2 -15 2 -3 7 2 10 11 7 17 1 20 -8 4z"/>
<path d="M5200 1509 c0 -5 5 -7 10 -4 6 3 10 8 10 11 0 2 -4 4 -10 4 -5 0 -10
-5 -10 -11z"/>
<path d="M5090 1490 c-6 -12 -9 -24 -7 -27 3 -2 11 5 17 17 6 12 9 24 7 27 -3
2 -11 -5 -17 -17z"/>
<path d="M5175 1490 c-3 -5 1 -10 10 -10 9 0 13 5 10 10 -3 6 -8 10 -10 10 -2
0 -7 -4 -10 -10z"/>
<path d="M5230 1473 c0 -4 12 -21 26 -38 22 -26 24 -27 13 -5 -14 27 -39 56
-39 43z"/>
<path d="M4810 1446 c17 -17 11 -29 -34 -78 -38 -39 -42 -48 -30 -59 9 -7 14
-8 14 -1 0 6 18 30 40 54 41 44 48 62 29 74 -8 4 -7 9 2 15 10 6 7 8 -9 6 -14
-1 -18 -5 -12 -11z"/>
<path d="M5245 1389 c-11 -16 -1 -19 13 -3 7 8 8 14 3 14 -5 0 -13 -5 -16 -11z"/>
<path d="M5075 1370 c-3 -6 1 -7 9 -4 18 7 21 14 7 14 -6 0 -13 -4 -16 -10z"/>
<path d="M4640 1361 c0 -6 4 -13 10 -16 6 -3 7 1 4 9 -7 18 -14 21 -14 7z"/>
<path d="M4960 1360 c0 -5 5 -10 11 -10 5 0 7 5 4 10 -3 6 -8 10 -11 10 -2 0
-4 -4 -4 -10z"/>
<path d="M5325 1350 c10 -11 20 -18 23 -15 7 6 -18 35 -31 35 -5 0 -2 -9 8
-20z"/>
<path d="M5197 1353 c-10 -9 -9 -23 1 -23 5 0 9 7 9 15 0 17 -1 18 -10 8z"/>
<path d="M4626 1324 c-8 -22 -4 -25 11 -9 7 8 9 16 4 19 -5 3 -12 -1 -15 -10z"/>
<path d="M4890 1331 c0 -5 7 -11 14 -14 10 -4 13 -1 9 9 -6 15 -23 19 -23 5z"/>
<path d="M4690 1314 c-19 -10 -21 -14 -7 -14 26 0 21 -10 -28 -62 -24 -26 -40
-50 -35 -53 5 -3 28 15 52 41 30 32 43 55 43 75 0 16 0 29 0 28 0 -1 -11 -7
-25 -15z"/>
<path d="M5327 1289 c7 -7 15 -10 18 -7 3 3 -2 9 -12 12 -14 6 -15 5 -6 -5z"/>
<path d="M4645 1281 c-3 -5 -2 -12 3 -15 5 -3 9 1 9 9 0 17 -3 19 -12 6z"/>
<path d="M5215 1270 c-3 -5 -1 -10 4 -10 6 0 11 5 11 10 0 6 -2 10 -4 10 -3 0
-8 -4 -11 -10z"/>
<path d="M4467 1243 c-4 -3 -7 -16 -6 -27 0 -19 1 -19 10 3 10 24 8 36 -4 24z"/>
<path d="M4512 1230 c7 -11 16 -20 20 -20 5 0 3 9 -4 20 -7 11 -16 20 -20 20
-5 0 -3 -9 4 -20z"/>
<path d="M4740 1230 c0 -5 5 -10 10 -10 6 0 10 5 10 10 0 6 -4 10 -10 10 -5 0
-10 -4 -10 -10z"/>
<path d="M5190 1226 c0 -2 7 -6 15 -10 8 -3 15 -1 15 4 0 6 -7 10 -15 10 -8 0
-15 -2 -15 -4z"/>
<path d="M4780 1195 c0 -5 5 -17 10 -25 5 -8 10 -10 10 -5 0 6 -5 17 -10 25
-5 8 -10 11 -10 5z"/>
<path d="M4526 1144 c-9 -24 -2 -26 12 -4 7 11 8 20 3 20 -5 0 -12 -7 -15 -16z"/>
<path d="M5067 1093 c-3 -5 5 -8 18 -8 13 0 21 3 18 8 -2 4 -10 7 -18 7 -8 0
-16 -3 -18 -7z"/>
<path d="M4636 1083 c6 -4 14 -15 17 -23 5 -11 6 -9 4 4 -1 11 -9 21 -17 23
-10 3 -11 2 -4 -4z"/>
<path d="M4851 1057 c-13 -21 -12 -21 5 -5 10 10 16 20 13 22 -3 3 -11 -5 -18
-17z"/>
<path d="M4958 1073 c7 -3 16 -2 19 1 4 3 -2 6 -13 5 -11 0 -14 -3 -6 -6z"/>
<path d="M5048 1063 c6 -2 18 -2 25 0 6 3 1 5 -13 5 -14 0 -19 -2 -12 -5z"/>
<path d="M5090 1060 c0 -5 4 -10 9 -10 6 0 13 5 16 10 3 6 -1 10 -9 10 -9 0
-16 -4 -16 -10z"/>
<path d="M4670 1034 c0 -8 5 -12 10 -9 6 3 10 10 10 16 0 5 -4 9 -10 9 -5 0
-10 -7 -10 -16z"/>
<path d="M5120 1044 c0 -11 29 -34 34 -26 2 4 -4 13 -15 20 -10 7 -19 10 -19
6z"/>
<path d="M4626 985 c-3 -9 -10 -13 -16 -10 -6 3 -10 -4 -10 -16 0 -21 1 -21
21 5 12 15 19 29 16 32 -2 3 -7 -2 -11 -11z"/>
<path d="M4560 980 c8 -5 20 -10 25 -10 6 0 3 5 -5 10 -8 5 -19 10 -25 10 -5
0 -3 -5 5 -10z"/>
<path d="M4715 980 c-3 -5 -1 -10 4 -10 6 0 11 5 11 10 0 6 -2 10 -4 10 -3 0
-8 -4 -11 -10z"/>
<path d="M4985 979 c-4 -6 -5 -12 -2 -15 2 -3 7 2 10 11 7 17 1 20 -8 4z"/>
<path d="M4690 955 c0 -7 30 -13 34 -7 3 4 -4 9 -15 9 -10 1 -19 0 -19 -2z"/>
<path d="M4730 935 c-11 -13 -10 -14 2 -10 16 6 45 -21 34 -32 -4 -4 -11 -1
-15 6 -6 9 -11 10 -15 2 -4 -6 -2 -11 4 -11 7 0 10 -7 7 -14 -4 -10 -1 -13 9
-9 14 5 14 3 3 -15 -9 -15 -20 -20 -35 -16 -12 3 -25 0 -29 -7 -5 -8 -4 -10 3
-5 7 4 12 1 12 -8 0 -25 14 -19 48 18 20 23 27 36 19 40 -9 3 -8 7 2 14 11 8
10 14 -5 36 -22 30 -27 31 -44 11z"/>
<path d="M4910 920 c0 -5 -16 -20 -35 -32 -19 -13 -35 -27 -35 -31 0 -6 53 26
70 43 3 3 14 7 24 8 16 3 18 1 8 -10 -9 -12 -9 -15 1 -15 16 0 18 29 3 39 -16
11 -36 10 -36 -2z"/>
<path d="M4503 889 c14 -24 14 -28 -1 -45 -9 -10 -5 -8 11 5 29 26 33 33 18
29 -5 -2 -17 6 -26 17 -16 19 -16 19 -2 -6z"/>
<path d="M4692 894 c-7 -8 -8 -14 -3 -14 10 0 25 19 20 25 -2 1 -10 -3 -17
-11z"/>
<path d="M5041 881 c-8 -5 -21 -7 -30 -4 -13 4 -14 3 -2 -5 14 -10 51 0 51 13
0 7 -3 6 -19 -4z"/>
<path d="M4460 873 c0 -5 4 -14 9 -21 7 -11 9 -11 14 1 3 8 3 18 0 21 -9 8
-23 7 -23 -1z"/>
<path d="M4666 857 c3 -10 9 -15 12 -12 3 3 0 11 -7 18 -10 9 -11 8 -5 -6z"/>
<path d="M4992 846 c7 -8 15 -12 17 -11 5 6 -10 25 -20 25 -5 0 -4 -6 3 -14z"/>
<path d="M4449 827 c6 -8 8 -17 4 -20 -3 -4 -2 -7 4 -7 18 0 22 12 8 26 -18
18 -31 18 -16 1z"/>
<path d="M4556 813 c-6 -14 -5 -15 5 -6 7 7 10 15 7 18 -3 3 -9 -2 -12 -12z"/>
<path d="M4607 824 c-3 -4 -2 -15 4 -25 8 -15 6 -19 -7 -19 -13 0 -14 -3 -4
-15 14 -17 35 -21 25 -5 -3 6 -2 10 3 10 16 0 23 31 11 46 -12 15 -22 17 -32
8z"/>
<path d="M4947 799 c7 -7 15 -10 18 -7 3 3 -2 9 -12 12 -14 6 -15 5 -6 -5z"/>
<path d="M4410 776 c0 -8 -3 -23 -6 -33 -6 -16 -5 -16 9 2 19 23 22 45 7 45
-5 0 -10 -6 -10 -14z"/>
<path d="M4534 782 c4 -7 2 -21 -5 -30 -12 -15 -11 -15 6 0 16 15 17 20 6 30
-11 11 -13 10 -7 0z"/>
<path d="M4780 781 c0 -6 4 -13 10 -16 6 -3 7 1 4 9 -7 18 -14 21 -14 7z"/>
<path d="M4810 758 c-3 -49 -4 -51 -13 -65 -5 -8 -4 -13 2 -13 6 0 11 4 11 9
0 6 9 9 20 8 13 -1 19 -6 15 -16 -5 -12 -3 -12 11 0 16 13 15 15 -9 23 -21 8
-27 17 -30 50 l-4 41 -3 -37z"/>
<path d="M4757 763 c-2 -4 5 -17 16 -28 l20 -20 -13 25 c-16 32 -17 33 -23 23z"/>
<path d="M4580 751 c0 -5 5 -13 10 -16 6 -3 10 -2 10 4 0 5 -4 13 -10 16 -5 3
-10 2 -10 -4z"/>
<path d="M4550 700 c0 -5 5 -10 10 -10 6 0 10 5 10 10 0 6 -4 10 -10 10 -5 0
-10 -4 -10 -10z"/>
<path d="M4672 640 c-7 -11 -10 -20 -6 -20 7 0 34 27 34 34 0 13 -16 5 -28
-14z"/>
<path d="M4580 570 c0 -5 5 -10 11 -10 5 0 7 5 4 10 -3 6 -8 10 -11 10 -2 0
-4 -4 -4 -10z"/>
<path d="M4538 525 c-30 -35 -38 -57 -12 -31 17 17 44 21 44 7 0 -5 -6 -12
-12 -14 -7 -3 -1 -6 15 -6 15 -1 27 -6 27 -12 0 -7 10 -9 26 -5 19 5 24 4 18
-6 -6 -10 -3 -9 9 1 21 17 21 25 1 46 -9 8 -14 24 -11 34 4 16 -6 19 -42 12
-3 -1 4 -8 15 -16 19 -15 19 -15 -1 -8 -11 3 -24 11 -28 17 -5 7 -7 4 -5 -6 2
-9 0 -17 -4 -17 -27 -3 -30 0 -18 14 7 9 11 17 9 19 -2 1 -16 -12 -31 -29z
m118 -42 c-6 -6 -36 9 -36 18 0 5 9 4 20 -3 10 -7 18 -14 16 -15z"/>
<path d="M4607 443 c-4 -3 -7 -11 -7 -17 0 -6 5 -5 12 2 6 6 9 14 7 17 -3 3
-9 2 -12 -2z"/>
<path d="M4557 391 c-4 -17 -3 -21 5 -13 5 5 8 16 6 23 -3 8 -7 3 -11 -10z"/>
<path d="M4365 270 c3 -5 3 -10 -2 -10 -4 0 -9 -28 -10 -62 -2 -44 0 -59 8
-51 6 6 10 31 8 56 -2 25 -1 43 4 40 4 -2 7 -13 7 -23 0 -10 3 -21 8 -23 4 -3
7 6 7 19 0 13 -3 24 -7 24 -5 0 -8 9 -8 20 0 11 -5 20 -11 20 -5 0 -7 -4 -4
-10z"/>
<path d="M4454 261 c4 -5 1 -12 -4 -14 -6 -3 -5 -4 2 -3 15 3 23 26 8 26 -6 0
-9 -4 -6 -9z"/>
<path d="M5375 1160 c-10 -11 -16 -22 -14 -24 2 -2 12 7 22 20 22 29 17 32 -8
4z"/>
<path d="M5304 1088 c-5 -7 -2 -9 9 -5 9 3 18 -1 22 -11 3 -9 1 -18 -4 -20 -6
-2 -9 -8 -6 -13 4 -5 12 -3 19 3 11 11 11 17 -1 35 -17 26 -28 29 -39 11z"/>
<path d="M5396 1015 c-3 -8 -1 -15 3 -15 5 0 11 7 15 15 3 8 1 15 -3 15 -5 0
-11 -7 -15 -15z"/>
<path d="M5306 1004 c-23 -23 -20 -30 4 -9 11 10 20 20 20 22 0 7 -9 2 -24
-13z"/>
<path d="M5392 970 c-7 -12 -17 -18 -22 -15 -5 3 -7 0 -5 -7 7 -17 -32 -54
-60 -60 -13 -2 -20 -11 -19 -25 0 -14 -16 -39 -42 -64 -33 -33 -49 -41 -78
-41 -23 0 -34 -4 -29 -11 3 -6 1 -7 -6 -3 -6 4 -9 12 -6 17 11 16 -5 48 -21
42 -8 -3 -14 1 -14 11 0 19 -14 21 -29 3 -13 -17 5 -38 25 -30 14 5 16 0 18
-42 1 -11 8 -20 16 -20 8 -1 14 -7 12 -15 -5 -23 15 2 21 25 4 16 5 15 6 -5 1
-18 -12 -38 -39 -65 -37 -36 -51 -65 -32 -65 5 0 29 24 54 54 35 40 44 56 35
65 -8 8 -8 14 1 23 9 9 16 7 31 -6 16 -14 23 -15 38 -6 16 10 16 10 -4 5 -27
-8 -29 2 -5 24 57 54 75 81 64 94 -12 14 -7 27 10 27 5 0 13 -10 18 -22 7 -20
9 -20 9 -4 1 10 21 42 46 71 24 29 41 55 38 59 -11 10 -18 7 -31 -14z"/>
<path d="M5176 939 c-15 -12 -25 -27 -22 -35 3 -7 0 -15 -7 -18 -7 -2 -5 -5 4
-5 9 -1 22 6 29 14 11 13 10 14 -5 9 -15 -6 -16 -4 -5 15 7 14 17 20 26 17 8
-3 13 -2 9 3 -3 5 1 12 7 14 8 3 9 6 2 6 -6 1 -23 -9 -38 -20z"/>
<path d="M5110 869 c0 -5 5 -7 10 -4 6 3 10 8 10 11 0 2 -4 4 -10 4 -5 0 -10
-5 -10 -11z"/>
<path d="M5245 840 c-3 -6 1 -7 9 -4 18 7 21 14 7 14 -6 0 -13 -4 -16 -10z"/>
<path d="M5151 794 c0 -11 3 -14 6 -6 3 7 2 16 -1 19 -3 4 -6 -2 -5 -13z"/>
<path d="M5300 806 c0 -2 7 -7 16 -10 8 -3 12 -2 9 4 -6 10 -25 14 -25 6z"/>
<path d="M5190 790 c-13 -8 -12 -10 3 -10 9 0 17 5 17 10 0 12 -1 12 -20 0z"/>
<path d="M5080 708 c0 -19 2 -20 10 -8 13 19 13 30 0 30 -5 0 -10 -10 -10 -22z"/>
<path d="M5110 701 c-12 -24 -13 -34 -1 -27 9 6 22 46 15 46 -2 0 -8 -9 -14
-19z"/>
<path d="M5179 673 c-36 -44 -41 -53 -30 -53 6 0 16 12 22 27 7 20 12 24 18
14 6 -9 10 -7 14 8 6 26 -5 27 -24 4z"/>
<path d="M5327 656 c-4 -9 -15 -13 -29 -10 -21 4 -21 4 -3 -5 20 -9 56 11 43
24 -3 3 -8 -1 -11 -9z"/>
<path d="M5219 626 c-7 -14 -16 -23 -20 -20 -5 3 -9 -2 -9 -10 0 -15 12 -21
34 -17 5 1 12 -3 16 -10 10 -15 30 -3 30 18 0 8 -9 26 -20 40 l-19 25 -12 -26z
m31 -31 c7 -9 11 -17 8 -20 -2 -2 -12 4 -21 15 -9 11 -13 20 -8 20 5 0 14 -7
21 -15z"/>
<path d="M5138 603 c19 -4 23 -9 18 -28 -4 -14 0 -27 9 -35 18 -15 20 0 3 20
-11 12 -10 12 5 1 21 -17 22 -8 1 24 -10 15 -25 24 -38 24 -19 -2 -19 -2 2 -6z"/>
<path d="M5120 564 c0 -5 15 -24 33 -42 24 -23 36 -29 47 -22 13 9 13 11 0 21
-12 9 -11 10 5 6 11 -2 26 2 33 10 7 7 9 13 5 14 -4 0 -16 2 -26 4 -10 2 -22
-6 -31 -22 l-13 -25 -26 33 c-15 19 -27 29 -27 23z"/>
<path d="M4772 511 c-17 -17 -32 -32 -32 -35 0 -11 61 -37 71 -30 6 4 16 0 21
-7 7 -10 8 -9 4 6 -3 11 -2 26 3 33 16 26 21 -18 6 -53 -10 -26 -18 -33 -32
-29 -15 5 -16 4 -3 -5 12 -8 21 -4 43 19 l28 30 -18 38 c-15 31 -23 37 -48 35
-16 -1 -22 1 -12 4 9 2 17 9 17 14 0 16 -15 10 -48 -20z m48 -21 c-8 -5 -24
-7 -35 -4 -16 4 -17 3 -5 -5 8 -6 24 -8 35 -5 19 6 19 5 4 -11 -14 -14 -20
-15 -38 -3 -33 21 -26 38 17 38 27 0 33 -3 22 -10z"/>
<path d="M5060 521 c0 -5 7 -11 14 -14 10 -4 13 -1 9 9 -6 15 -23 19 -23 5z"/>
<path d="M4997 483 c-4 -3 -7 -11 -7 -17 0 -6 4 -6 11 1 6 6 19 9 28 6 14 -4
14 -3 1 6 -18 13 -24 13 -33 4z"/>
<path d="M5027 451 c-17 -6 -17 -8 2 -25 19 -17 19 -17 14 5 -5 17 -3 20 7 14
9 -5 11 -4 6 3 -4 7 -8 12 -9 11 -1 0 -10 -4 -20 -8z"/>
<path d="M4705 440 c-3 -5 -4 -14 0 -19 3 -5 -2 -17 -11 -26 -19 -19 -18 -21
16 -29 17 -4 33 0 50 14 22 17 23 19 4 14 -25 -6 -58 22 -50 42 6 16 0 19 -9
4z"/>
<path d="M4800 370 c0 -6 -11 -16 -25 -22 -15 -7 -25 -20 -25 -32 -1 -21 -1
-21 -16 -1 -14 19 -13 21 10 29 14 6 26 13 26 18 0 12 -6 10 -42 -12 -18 -11
-39 -20 -46 -20 -7 0 -20 -7 -28 -15 -9 -8 -11 -15 -5 -15 6 0 11 -6 11 -14 0
-20 17 -29 26 -15 4 8 3 9 -4 5 -8 -5 -12 1 -12 14 0 12 4 19 9 15 6 -3 15 3
21 12 10 16 11 16 6 1 -3 -10 0 -20 6 -24 7 -4 8 -3 4 4 -4 7 -3 12 3 12 5 0
13 -5 16 -10 5 -8 11 -7 21 1 7 6 11 15 8 20 -3 5 2 9 10 9 23 0 20 -8 -21
-54 -21 -22 -47 -41 -58 -42 -11 0 -20 -4 -20 -10 0 -5 4 -8 9 -6 15 5 26 -21
20 -48 -4 -20 -3 -22 5 -10 6 8 11 22 11 30 0 8 22 39 49 67 27 29 45 56 40
59 -6 3 -7 19 -4 35 4 16 4 29 1 29 -3 0 -6 -5 -6 -10z"/>
<path d="M4599 324 c-8 -10 -8 -14 0 -14 6 0 11 4 11 9 0 6 10 8 21 6 12 -3
19 -1 15 2 -12 13 -35 11 -47 -3z"/>
<path d="M4546 268 c-28 -35 -35 -58 -11 -38 13 11 14 10 9 -5 -6 -15 -4 -16
15 -6 20 11 21 10 16 -12 -4 -14 -2 -28 4 -31 7 -4 11 1 11 13 0 10 3 26 6 34
4 11 -2 17 -18 20 -21 4 -21 4 4 6 14 0 28 -5 31 -11 2 -7 8 -10 12 -6 13 13
-16 39 -36 33 -11 -4 -19 -2 -19 4 0 6 7 11 16 11 8 0 12 5 9 10 -10 16 -21
12 -49 -22z"/>
<path d="M4700 260 c-6 -11 -7 -20 -3 -20 5 0 14 9 21 20 7 11 8 20 2 20 -5 0
-14 -9 -20 -20z"/>
<path d="M4786 235 c-9 -35 -1 -43 14 -15 8 14 8 26 2 32 -6 6 -12 0 -16 -17z"/>
<path d="M4760 231 c-6 -12 -7 -21 -1 -21 10 0 24 30 17 37 -2 3 -9 -5 -16
-16z"/>
<path d="M4495 210 c-3 -5 -1 -10 4 -10 6 0 11 5 11 10 0 6 -2 10 -4 10 -3 0
-8 -4 -11 -10z"/>
<path d="M4737 195 c3 -8 9 -12 14 -9 12 7 11 11 -5 17 -10 4 -13 1 -9 -8z"/>
<path d="M4457 143 c3 -10 10 -23 14 -29 11 -14 -13 -65 -28 -60 -6 3 -13 1
-15 -4 -7 -19 -31 -14 -33 6 -1 17 3 21 21 19 13 -1 30 5 38 14 12 14 12 19 1
35 -12 16 -17 17 -30 6 -9 -7 -14 -19 -11 -26 3 -8 0 -11 -8 -8 -16 6 -51 -32
-37 -41 18 -10 12 -23 -11 -28 -13 -2 1 -5 30 -6 29 0 52 3 52 9 0 6 7 10 16
10 9 0 12 -5 8 -12 -5 -8 -2 -9 10 -5 10 4 20 7 22 7 2 0 4 5 4 11 0 5 -4 8
-9 5 -4 -3 -6 6 -3 21 l5 26 12 -29 12 -29 8 26 c5 22 0 33 -30 63 -40 40 -47
44 -38 19z"/>
<path d="M4677 127 c-9 -23 8 -41 23 -23 7 9 16 14 20 11 4 -3 10 2 14 10 6
17 -19 21 -30 4 -5 -8 -9 -8 -14 1 -5 9 -9 8 -13 -3z"/>
<path d="M4770 136 c0 -2 9 -6 20 -9 11 -3 18 -1 14 4 -5 9 -34 13 -34 5z"/>
<path d="M4578 123 c-10 -2 -18 -9 -18 -14 0 -6 8 -5 20 1 11 6 20 13 20 15 0
3 -1 4 -2 4 -2 -1 -11 -3 -20 -6z"/>
<path d="M5360 595 c-19 -22 -8 -25 13 -3 9 10 13 18 8 18 -5 0 -14 -7 -21
-15z"/>
<path d="M5295 528 l-20 -21 21 11 c27 14 35 6 27 -27 -6 -23 -5 -25 10 -12
15 12 17 11 17 -5 0 -16 2 -16 10 -4 5 9 5 19 0 26 -6 6 -7 14 -3 17 3 4 -1 7
-10 7 -9 0 -17 7 -17 15 0 20 -11 18 -35 -7z"/>
<path d="M5266 491 c-3 -5 1 -14 9 -21 11 -9 15 -9 15 -1 0 7 5 9 13 5 8 -5 8
-2 -2 9 -15 19 -27 22 -35 8z"/>
<path d="M5240 459 c0 -5 5 -7 10 -4 6 3 10 8 10 11 0 2 -4 4 -10 4 -5 0 -10
-5 -10 -11z"/>
<path d="M5302 434 c-14 -16 -16 -28 -2 -19 6 3 7 -1 4 -9 -3 -9 -11 -13 -16
-10 -6 4 -5 -3 1 -15 9 -16 9 -21 0 -21 -6 0 -9 -7 -6 -15 4 -8 3 -16 -2 -19
-7 -4 -31 21 -64 67 -8 12 -19 16 -30 11 -23 -8 -16 -30 8 -26 15 3 13 -2 -9
-28 -34 -41 -26 -52 9 -14 16 18 25 22 21 12 -3 -10 2 -21 11 -27 14 -7 15
-12 4 -25 -7 -8 -10 -19 -7 -25 6 -9 -21 -26 -36 -23 -5 1 -8 -5 -8 -13 0 -8
2 -15 5 -15 12 0 64 54 59 61 -6 10 24 25 32 17 7 -8 -77 -99 -87 -93 -5 3
-18 1 -29 -5 -11 -6 -20 -7 -20 -3 -1 20 -38 55 -50 48 -11 -7 -9 -10 6 -16
17 -7 17 -8 2 -8 -14 -1 -18 -10 -18 -37 0 -31 3 -35 20 -29 27 9 25 -3 -2
-15 -15 -6 -17 -9 -7 -9 9 -1 24 8 35 20 13 15 14 20 4 17 -9 -2 -16 6 -18 20
-2 12 2 22 8 22 7 0 9 -8 5 -21 -5 -14 -3 -19 3 -15 6 3 13 2 17 -4 3 -6 -11
-31 -31 -56 -27 -32 -43 -44 -56 -40 -11 2 -22 -2 -24 -9 -13 -32 -106 -43
-124 -14 -4 6 -5 20 -2 32 4 14 2 18 -7 12 -8 -4 -10 -17 -7 -31 5 -19 2 -26
-16 -34 -17 -7 -7 -9 45 -9 62 -1 102 10 119 33 4 6 12 5 20 -2 21 -17 127 90
110 111 -10 11 -9 17 2 26 12 10 16 8 21 -8 3 -12 3 -25 0 -31 -3 -5 0 -10 8
-10 18 0 30 27 15 32 -7 3 8 25 33 51 29 32 44 57 44 74 0 14 5 28 11 30 19 6
25 -27 9 -51 -8 -12 -12 -26 -8 -29 3 -4 1 -7 -6 -7 -7 0 -25 -12 -41 -27 -35
-34 -32 -74 6 -92 22 -10 24 -9 19 12 -4 13 1 30 10 42 16 20 16 20 5 -2 -9
-19 -8 -22 5 -17 8 4 15 1 15 -7 0 -27 14 3 20 46 7 43 -4 64 -13 28 -3 -10
-5 -3 -6 15 0 18 6 40 14 49 8 8 13 19 9 24 -3 5 13 30 35 56 42 47 47 58 32
67 -4 3 -13 -6 -20 -20 -6 -14 -16 -22 -21 -19 -7 4 -7 14 0 28 10 22 10 22
-6 0 -18 -24 -39 -31 -31 -10 7 20 -16 36 -31 21z m28 -64 c4 0 11 7 14 16 3
8 11 12 17 9 15 -10 -29 -55 -53 -55 -11 0 -16 5 -13 10 4 6 11 8 16 5 5 -4 9
-2 9 4 0 5 -5 13 -10 16 -6 4 -7 12 -3 18 5 8 9 7 11 -5 2 -10 7 -18 12 -18z
m-233 -192 c-3 -7 -5 -2 -5 12 0 14 2 19 5 13 2 -7 2 -19 0 -25z m170 7 c0 -8
-4 -12 -9 -9 -5 3 -6 10 -3 15 9 13 12 11 12 -6z m60 -17 c-3 -8 -6 -5 -6 6
-1 11 2 17 5 13 3 -3 4 -12 1 -19z"/>
<path d="M5149 367 c-1 -4 -2 -13 -3 -19 -1 -7 -9 -12 -19 -10 -12 2 -15 -2
-10 -14 4 -10 2 -15 -4 -11 -5 3 -10 0 -10 -8 0 -8 5 -15 10 -15 5 0 6 -8 2
-17 -5 -14 -3 -15 5 -7 19 19 48 5 44 -19 -4 -19 -3 -18 7 3 7 14 11 28 11 32
-1 4 5 5 13 2 19 -8 32 23 16 39 -8 8 -11 7 -11 -6 0 -13 -7 -17 -28 -15 -15
1 -33 -1 -40 -6 -21 -13 -13 4 15 30 20 19 24 27 15 36 -7 7 -13 9 -13 5z"/>
<path d="M5369 334 c-7 -9 -14 -32 -15 -52 -1 -21 0 -29 3 -19 2 9 8 17 13 17
5 0 7 11 4 24 -3 17 2 28 13 35 10 6 13 11 7 11 -6 0 -17 -7 -25 -16z"/>
<path d="M5036 250 c-20 -22 -31 -40 -25 -40 7 0 9 -3 5 -7 -4 -5 -12 -8 -17
-8 -5 0 -9 -3 -9 -7 0 -5 0 -11 0 -15 0 -14 42 33 57 65 10 20 21 31 29 28 15
-6 19 9 5 18 -4 3 -25 -12 -45 -34z"/>
<path d="M5130 239 c0 -5 5 -7 10 -4 6 3 10 8 10 11 0 2 -4 4 -10 4 -5 0 -10
-5 -10 -11z"/>
<path d="M5355 149 c-4 -6 -5 -12 -2 -15 2 -3 7 2 10 11 7 17 1 20 -8 4z"/>
<path d="M4929 123 c-13 -16 -12 -17 3 -5 14 11 17 10 24 -10 4 -13 7 -30 6
-38 -1 -10 0 -11 4 -2 5 10 9 10 20 1 26 -22 26 -2 0 24 -14 15 -26 31 -26 37
0 16 -16 12 -31 -7z"/>
<path d="M5175 119 c-4 -6 -5 -13 -2 -16 7 -7 27 6 27 18 0 12 -17 12 -25 -2z"/>
<path d="M5312 89 c-7 -11 -11 -23 -9 -25 7 -7 29 24 25 36 -2 6 -9 1 -16 -11z"/>
<path d="M5200 88 c0 -6 7 -20 17 -30 15 -17 15 -18 -5 -18 -13 0 -22 6 -22
15 0 8 -4 15 -9 15 -5 0 -8 -8 -7 -17 1 -12 -9 -20 -29 -24 -20 -4 -3 -7 48
-8 59 -1 78 2 74 12 -2 6 -10 11 -16 9 -7 -1 -10 1 -7 6 6 11 -21 52 -35 52
-5 0 -9 -5 -9 -12z"/>
<path d="M4932 81 c-11 -7 -11 -9 2 -14 10 -4 16 -1 16 8 0 17 -1 17 -18 6z"/>
<path d="M5150 65 c0 -33 15 -33 16 0 1 14 -2 25 -7 25 -5 0 -9 -11 -9 -25z"/>
<path d="M4864 62 c3 -5 0 -13 -6 -15 -9 -4 -10 -6 -1 -6 17 -1 25 16 12 25
-7 4 -9 3 -5 -4z"/>
<path d="M5110 55 c-6 -8 -10 -19 -8 -24 1 -6 8 1 15 14 13 28 11 31 -7 10z"/>
<path d="M5356 41 c-4 -7 -5 -15 -2 -18 9 -9 19 4 14 18 -4 11 -6 11 -12 0z"/>
<path d="M3872 8110 c0 -19 2 -27 5 -17 2 9 2 25 0 35 -3 9 -5 1 -5 -18z"/>
<path d="M6511 7934 c0 -11 3 -14 6 -6 3 7 2 16 -1 19 -3 4 -6 -2 -5 -13z"/>
<path d="M5748 7434 c-3 -3 -28 -7 -54 -9 -58 -6 -135 -24 -148 -36 -6 -5 -17
-9 -25 -9 -19 -1 -111 -90 -93 -90 7 0 11 -4 8 -8 -2 -4 0 -14 6 -22 8 -12 9
-12 4 3 -3 9 -1 17 4 17 6 0 10 -4 10 -9 0 -5 8 -12 18 -14 15 -4 15 -5 0 -6
-14 -1 -15 -6 -7 -30 11 -31 18 -32 66 -8 13 6 26 7 29 4 9 -9 -16 -37 -33
-37 -8 0 -11 -4 -8 -10 3 -5 0 -10 -8 -10 -19 0 -42 -28 -32 -38 4 -4 10 -1
12 6 3 6 14 12 26 12 22 -1 22 -1 2 -17 l-20 -16 20 8 c24 10 103 8 170 -3 54
-9 162 -2 158 11 -8 22 -1 47 12 47 8 0 15 -4 15 -8 0 -16 57 -41 81 -36 19 5
21 3 9 -5 -12 -8 -7 -11 20 -10 19 0 28 3 20 6 -8 4 -19 12 -25 19 -5 7 -39
27 -75 46 -36 18 -68 37 -72 43 -4 5 -39 9 -78 9 -38 0 -70 4 -70 8 0 4 -5 8
-11 8 -5 0 -7 -4 -4 -10 3 -5 -1 -10 -9 -10 -9 0 -16 7 -16 15 0 43 175 25
278 -29 15 -8 43 -30 61 -50 19 -20 41 -36 49 -36 13 0 9 6 -47 76 -12 15
-194 72 -253 79 -62 8 -62 23 -1 23 26 0 49 5 51 11 2 6 16 11 32 11 15 0 30
6 33 14 4 11 18 13 49 10 88 -9 135 -3 122 17 -4 6 -11 6 -19 -1 -8 -7 -28 -9
-49 -4 -39 7 -47 20 -18 27 16 4 16 5 0 6 -10 0 -18 5 -18 10 0 5 -6 9 -12 8
-7 0 -33 1 -58 2 -33 1 -41 4 -30 11 9 6 10 10 3 10 -6 0 -15 -5 -18 -10 -4
-7 -12 -7 -25 0 -22 12 -25 12 -32 4z m129 -40 c-3 -3 -12 -4 -19 -1 -8 3 -5
6 6 6 11 1 17 -2 13 -5z m-412 -95 c-4 -5 -12 -9 -18 -8 -9 0 -8 2 1 6 6 2 9
10 6 15 -4 7 -2 8 5 4 6 -4 9 -12 6 -17z m183 -150 c3 -19 1 -21 -8 -12 -7 6
-19 9 -26 6 -8 -3 -14 1 -14 10 0 16 17 27 35 23 6 -1 12 -13 13 -27z"/>
<path d="M6014 7411 c3 -5 22 -9 41 -8 21 1 30 4 22 9 -17 11 -69 10 -63 -1z"/>
<path d="M6115 7390 c3 -5 11 -10 16 -10 6 0 7 5 4 10 -3 6 -11 10 -16 10 -6
0 -7 -4 -4 -10z"/>
<path d="M6070 7380 c0 -5 5 -10 11 -10 5 0 7 5 4 10 -3 6 -8 10 -11 10 -2 0
-4 -4 -4 -10z"/>
<path d="M6068 7353 c7 -3 16 -2 19 1 4 3 -2 6 -13 5 -11 0 -14 -3 -6 -6z"/>
<path d="M5870 7340 c-12 -8 -11 -10 8 -10 12 0 22 5 22 10 0 13 -11 13 -30 0z"/>
<path d="M6247 7227 c-3 -8 -1 -20 4 -28 6 -10 9 -7 9 14 0 29 -5 35 -13 14z"/>
<path d="M5417 7185 c-4 -8 -1 -17 5 -21 7 -4 8 -3 4 4 -4 7 -2 12 3 12 6 0
11 5 11 10 0 15 -17 12 -23 -5z"/>
<path d="M6404 7137 l-21 -23 24 -54 c12 -29 23 -64 24 -79 0 -16 3 -20 6 -11
3 8 11 18 16 22 6 4 11 42 11 85 1 71 -1 78 -19 81 -12 2 -29 -7 -41 -21z"/>
<path d="M4245 7090 c3 -5 12 -7 20 -3 21 7 19 13 -6 13 -11 0 -18 -4 -14 -10z"/>
<path d="M6018 7093 c7 -3 16 -2 19 1 4 3 -2 6 -13 5 -11 0 -14 -3 -6 -6z"/>
<path d="M5585 7070 c3 -5 8 -10 11 -10 2 0 4 5 4 10 0 6 -5 10 -11 10 -5 0
-7 -4 -4 -10z"/>
<path d="M5571 7034 c7 -9 22 -20 34 -26 11 -5 34 -16 50 -26 18 -10 58 -17
100 -19 l70 -2 -65 15 c-36 8 -93 28 -128 44 -72 34 -80 36 -61 14z"/>
<path d="M5980 6991 c0 -5 5 -13 10 -16 6 -3 10 -2 10 4 0 5 -4 13 -10 16 -5
3 -10 2 -10 -4z"/>
<path d="M5067 6838 c-9 -20 -17 -42 -17 -50 0 -8 -5 -19 -12 -26 -14 -14 -11
-17 22 -27 24 -7 25 -7 5 10 -14 11 -16 18 -7 21 6 3 10 9 7 14 -2 4 2 22 11
39 9 17 14 36 12 43 -2 6 -12 -5 -21 -24z"/>
<path d="M4810 6800 c-9 -6 -10 -10 -3 -10 6 0 15 5 18 10 8 12 4 12 -15 0z"/>
<path d="M4135 6787 c-5 -7 -10 -37 -9 -67 0 -30 -2 -59 -6 -65 -10 -14 -8
-45 2 -45 5 0 6 10 3 21 -5 14 -3 19 3 15 6 -3 12 2 15 11 3 15 6 13 17 -9 7
-16 18 -28 23 -28 5 0 3 -8 -4 -17 -13 -16 -12 -17 3 -5 16 13 16 17 2 50 -9
21 -18 46 -20 57 l-4 20 9 -20 c9 -19 10 -19 10 2 1 12 -4 23 -11 25 -8 3 -6
7 5 11 10 4 16 2 14 -5 -1 -6 5 -13 13 -16 8 -2 12 -1 8 3 -4 5 -3 14 3 22 9
10 5 13 -20 13 -25 0 -32 -5 -37 -27 -11 -51 -14 -48 -11 10 2 31 3 57 3 57
-1 -1 -5 -6 -11 -13z"/>
<path d="M4367 6779 c7 -7 15 -10 18 -7 3 3 -2 9 -12 12 -14 6 -15 5 -6 -5z"/>
<path d="M4767 6716 c-26 -14 -49 -24 -50 -24 -1 0 -20 -5 -42 -10 -22 -6 -62
-13 -90 -16 -27 -2 -51 -5 -52 -6 -2 -2 -7 -3 -12 -4 -5 0 -13 -5 -18 -10 -10
-10 152 0 170 11 7 4 18 8 25 9 23 4 120 52 127 63 10 17 -6 13 -58 -13z"/>
<path d="M5027 6713 c-12 -12 -7 -22 8 -17 8 4 15 10 15 15 0 11 -14 12 -23 2z"/>
<path d="M4180 6682 c0 -4 6 -14 13 -21 14 -14 17 -121 3 -121 -4 0 -6 11 -4
24 3 17 1 23 -8 19 -10 -3 -10 -11 -3 -31 5 -14 8 -31 5 -39 -3 -7 0 -13 7
-13 8 0 8 -3 -1 -9 -10 -6 -6 -10 14 -14 19 -3 36 1 53 14 15 12 18 19 9 19
-8 0 -22 6 -33 13 -14 11 -15 16 -5 22 9 6 11 4 5 -6 -8 -12 -6 -12 8 0 18 15
23 26 7 16 -12 -7 -13 15 -2 30 7 10 30 19 142 52 43 12 44 13 10 11 -19 -1
-41 -6 -48 -11 -7 -6 -15 -7 -19 -4 -3 3 -18 0 -33 -8 -23 -12 -30 -12 -47 0
-11 8 -23 12 -25 9 -3 -2 -11 9 -18 26 -11 27 -30 41 -30 22z"/>
<path d="M4233 6672 c-9 -5 -6 -12 10 -21 19 -13 21 -12 10 1 -7 8 -10 18 -6
21 9 9 1 8 -14 -1z"/>
<path d="M5720 6670 c8 -5 22 -10 30 -10 13 0 13 1 0 10 -8 5 -22 10 -30 10
-13 0 -13 -1 0 -10z"/>
<path d="M5536 6655 c-3 -8 -1 -15 4 -15 13 0 22 18 11 24 -5 3 -11 -1 -15 -9z"/>
<path d="M5566 6654 c-9 -24 -8 -27 14 -21 10 3 20 1 22 -3 5 -14 80 -23 191
-21 141 1 175 18 41 19 -55 1 -117 3 -139 6 -23 2 -43 -1 -47 -8 -5 -7 -8 -4
-8 8 0 11 -3 17 -6 13 -4 -3 -19 0 -34 8 -25 13 -29 13 -34 -1z"/>
<path d="M4444 6649 c-3 -5 6 -9 20 -9 31 0 34 6 6 13 -11 3 -23 1 -26 -4z"/>
<path d="M4147 6633 c-10 -9 -9 -23 1 -23 5 0 9 7 9 15 0 17 -1 18 -10 8z"/>
<path d="M5358 6493 c7 -3 16 -2 19 1 4 3 -2 6 -13 5 -11 0 -14 -3 -6 -6z"/>
<path d="M4350 6336 c7 -7 13 -7 20 0 6 6 3 10 -10 10 -13 0 -16 -4 -10 -10z"/>
<path d="M4166 6277 c3 -10 9 -15 12 -12 3 3 0 11 -7 18 -10 9 -11 8 -5 -6z"/>
<path d="M4191 6224 c0 -11 3 -14 6 -6 3 7 2 16 -1 19 -3 4 -6 -2 -5 -13z"/>
<path d="M4552 6161 c-10 -6 -9 -10 7 -14 14 -3 21 0 21 9 0 16 -9 18 -28 5z"/>
<path d="M5020 6110 c0 -5 7 -10 16 -10 8 0 12 5 9 10 -3 6 -10 10 -16 10 -5
0 -9 -4 -9 -10z"/>
<path d="M5065 6110 c3 -5 14 -10 24 -10 9 0 22 -5 29 -12 7 -7 12 -8 12 -2 0
11 -42 34 -61 34 -6 0 -7 -4 -4 -10z"/>
<path d="M4990 6095 c0 -8 5 -15 10 -15 6 0 10 7 10 15 0 8 -4 15 -10 15 -5 0
-10 -7 -10 -15z"/>
<path d="M4360 6079 c0 -5 5 -7 10 -4 6 3 10 8 10 11 0 2 -4 4 -10 4 -5 0 -10
-5 -10 -11z"/>
<path d="M4890 5875 c0 -18 5 -21 32 -19 18 1 38 -2 44 -7 8 -6 13 -5 17 4 3
9 -11 18 -44 29 -48 14 -49 14 -49 -7z"/>
<path d="M5003 5854 c0 -18 23 -19 30 -1 3 7 -3 13 -12 14 -10 1 -18 -5 -18
-13z"/>
<path d="M5060 5854 c0 -8 4 -14 9 -14 5 0 16 -3 25 -6 10 -4 16 -1 16 9 0 8
-11 17 -25 19 -17 4 -25 1 -25 -8z"/>
<path d="M5125 5852 c-14 -15 0 -22 43 -21 42 0 45 1 22 11 -29 13 -58 17 -65
10z"/>
<path d="M4696 5608 c3 -5 10 -6 15 -3 13 9 11 12 -6 12 -8 0 -12 -4 -9 -9z"/>
<path d="M5187 5013 c-3 -3 -3 -11 0 -18 5 -14 33 -9 33 5 0 10 -26 20 -33 13z"/>
<path d="M5110 4913 c0 -7 4 -13 9 -13 5 0 11 6 14 13 3 8 -1 14 -9 14 -8 0
-14 -6 -14 -14z"/>
<path d="M7985 4400 c3 -5 8 -10 11 -10 2 0 4 5 4 10 0 6 -5 10 -11 10 -5 0
-7 -4 -4 -10z"/>
</g>
</svg>
